<?xml version="1.0" encoding="utf-8"?>
<!-- Generator: Adobe Illustrator 26.0.0, SVG Export Plug-In . SVG Version: 6.00 Build 0)  -->
<svg version="1.1" id="Layer_1" xmlns="http://www.w3.org/2000/svg" xmlns:xlink="http://www.w3.org/1999/xlink" x="0px" y="0px"
	 viewBox="0 0 355 188.8" style="enable-background:new 0 0 355 188.8;" xml:space="preserve">
<style type="text/css">
	.st0{fill:#E1202E;}
</style>
<g>
	<g>
		<g>
			<g>
				<path class="st0" d="M83.2,76.5c0,1.2-0.2,2.4-0.5,3.6c-0.4,1.6-1.1,3-2.1,4.3c-0.5,0.6-1,1.2-1.6,1.8c-2.4,2.3-5.6,3.6-9.1,3.6
					c-0.7,0-1.5-0.1-2.2-0.2c-5.1-0.8-9.2-4.6-10.6-9.5c-0.1-0.4-0.2-0.8-0.3-1.2c-0.1-0.8-0.2-1.6-0.2-2.4c0-5.3,3.1-9.8,7.5-11.9
					c1.1-0.5,2.3-0.9,3.6-1.2c0,0,0,0,0,0c0.7-0.1,1.4-0.2,2.1-0.2c3.5,0,6.7,1.4,9.1,3.6C81.6,69.2,83.2,72.6,83.2,76.5z"/>
				<g>
					<path class="st0" d="M72.1,36.3v15.1c0,0.6-0.3,1.2-0.7,1.7c-0.4,0.4-1,0.7-1.7,0.7H47.1v22.7c0,0.6-0.3,1.2-0.7,1.7
						c-0.4,0.4-1,0.7-1.7,0.7H29.6c-1.3,0-2.3-1-2.3-2.3V43.9c0-2.7,1.1-5.2,2.9-7h0c1.8-1.8,4.3-2.9,7-2.9h32.6
						c0.6,0,1.2,0.3,1.7,0.7C71.8,35.1,72.1,35.7,72.1,36.3z"/>
				</g>
			</g>
			<g>
				<path class="st0" d="M162.1,43.7v43.6c0,1.1,0,2.3-0.1,3.4c0,0.9-0.1,1.8-0.2,2.6c-0.6,7-2.3,13.6-4.9,19.8c0,0,0,0,0,0
					c-3.4,8.2-8.4,15.5-14.5,21.7h-0.2v0.2c-12.1,12-28.7,19.5-47.1,19.7c0,0-0.1,0-0.1,0s-0.1,0-0.1,0h-0.7c0,0-0.1,0-0.1,0
					s-0.1,0-0.1,0c-3.4,0-6.8-0.3-10.1-0.8c-4.1-0.7-8.1-1.7-11.9-3c-9.5-3.4-18-8.8-25-15.8V135h-0.2c-6.2-6.2-11.1-13.5-14.5-21.7
					c0,0,0,0,0,0c-2.6-6.2-4.3-12.8-4.9-19.8v0c0,0,0,0,0-0.1c0,0,0,0,0,0c0-0.1,0-0.2,0-0.2c0-0.6,0.3-1.2,0.7-1.7
					c0.4-0.4,1-0.7,1.7-0.7h15.2c0.6,0,1.2,0.3,1.7,0.7c0.4,0.4,0.6,0.9,0.7,1.4c0,0,0,0,0,0l0.1,0.5c0.9,7.2,3.5,14,7.3,19.8
					c0,0,0,0,0,0c4.3,6.7,10.3,12.2,17.4,16c3.7,2,7.7,3.5,11.9,4.5c3.4,0.8,7,1.2,10.6,1.2c16.7,0,31.5-8.6,39.9-21.7c0,0,0,0,0,0
					c3.8-5.8,6.3-12.6,7.3-19.8c0.1-0.9,0.2-1.8,0.3-2.6c0.1-1.1,0.1-2.3,0.1-3.4V63.8c0-2.7-1.1-5.2-2.9-7c-1.8-1.8-4.3-2.9-7-2.9
					H94.7v0h-8.3c-1.3,0-2.3-1-2.3-2.3V36.3c0-0.6,0.3-1.2,0.7-1.7c0.4-0.4,1-0.7,1.7-0.7h65.8c2.7,0,5.2,1.1,7,2.9
					C160.9,38.7,162,41.1,162.1,43.7z"/>
				<path class="st0" d="M84,51.4v0.2C84,51.5,84,51.5,84,51.4C84,51.5,84,51.4,84,51.4z"/>
			</g>
		</g>
		<g>
			<g>
				<circle class="st0" cx="308.1" cy="91.2" r="6"/>
				<circle class="st0" cx="259.9" cy="91.2" r="6"/>
				<circle class="st0" cx="244.9" cy="91.2" r="6"/>
				<circle class="st0" cx="207" cy="91.2" r="6"/>
				<path class="st0" d="M327.7,58.1v0.1c0,0.2,0,0.5,0,0.7c-0.1,2-0.4,3.9-0.9,5.7c0,0,0,0,0,0c0,0,0,0,0,0
					c-0.5,1.9-1.3,3.7-2.3,5.3c0,0,0,0,0,0.1c0,0,0,0.1-0.1,0.1c-2.1,3.5-5,6.5-8.5,8.5c0,0,0,0-0.1,0c-3.1,1.8-6.6,2.9-10.4,3.2
					h-26.1c-1.9-0.1-3.7-0.4-5.3-1c0,0,0,0,0,0c-2.2-0.8-4.2-2-5.9-3.5c0,0,0,0,0,0c0,0,0,0,0,0c-0.2,0.2-0.4,0.3-0.6,0.5
					c-0.1,0-0.1,0.1-0.2,0.1c-0.3,0.2-0.6,0.5-0.9,0.7c-0.1,0.1-0.3,0.2-0.4,0.3c-0.1,0.1-0.3,0.2-0.4,0.3c-0.1,0.1-0.2,0.2-0.4,0.2
					c-0.3,0.2-0.5,0.3-0.8,0.4c-0.5,0.3-1,0.5-1.6,0.7c-0.1,0.1-0.3,0.1-0.4,0.2c-0.1,0-0.3,0.1-0.4,0.2c0,0,0,0,0,0
					c-0.2,0.1-0.4,0.1-0.6,0.2c-0.2,0.1-0.3,0.1-0.5,0.1c0,0-0.1,0-0.1,0c-0.2,0.1-0.3,0.1-0.5,0.1c-0.2,0-0.4,0.1-0.6,0.1
					c-0.1,0-0.1,0-0.2,0c-0.2,0-0.4,0.1-0.7,0.1c-0.2,0-0.4,0.1-0.6,0.1c0,0,0,0-0.1,0c-0.1,0-0.2,0-0.3,0c-0.1,0-0.1,0-0.2,0
					c-0.2,0-0.3,0-0.5,0c0,0-0.1,0-0.1,0c-0.1,0-0.3,0-0.4,0h-13.2c-1.9-0.1-3.7-0.4-5.3-1c-2.2-0.8-4.2-2-5.9-3.5c0,0,0,0,0,0
					c0,0,0,0,0,0c-0.1,0.1-0.1,0.1-0.2,0.2l-0.2,0.2c-0.4,0.3-0.7,0.6-1.1,0.9c-0.1,0.1-0.3,0.2-0.4,0.3c-0.3,0.2-0.7,0.4-1,0.6
					c-0.1,0.1-0.2,0.1-0.2,0.1c-0.4,0.2-0.8,0.4-1.3,0.6c-0.2,0.1-0.4,0.2-0.6,0.3c-0.3,0.1-0.6,0.2-0.9,0.3c-0.1,0-0.2,0.1-0.3,0.1
					c-0.2,0.1-0.3,0.1-0.5,0.2c-0.3,0.1-0.5,0.2-0.8,0.2c-0.1,0-0.1,0-0.2,0.1c-0.4,0.1-0.7,0.2-1.1,0.2c-0.2,0-0.4,0.1-0.6,0.1
					c0,0-0.1,0-0.1,0c-0.1,0-0.3,0-0.4,0.1c0,0-0.1,0-0.1,0c-0.1,0-0.1,0-0.2,0c-0.2,0-0.5,0-0.7,0.1c0,0,0,0-0.1,0
					c-0.1,0-0.3,0-0.4,0h-29.2c-0.3,0-0.6,0-0.9,0c-0.3,0-0.5,0-0.8-0.1c0,0-0.1,0-0.1,0c-0.3,0-0.6-0.1-0.8-0.1
					c-0.1,0-0.3,0-0.4-0.1c-0.1,0-0.2,0-0.3-0.1c-0.1,0-0.1,0-0.2,0c-0.1,0-0.2,0-0.2,0c-0.1,0-0.2,0-0.3-0.1
					c-0.1,0-0.2-0.1-0.3-0.1c0,0,0,0-0.1,0c0,0-0.1,0-0.1,0c0,0,0,0,0,0c-0.2-0.1-0.4-0.1-0.6-0.2c-0.2-0.1-0.4-0.1-0.6-0.2
					c0,0,0,0,0,0h0c-1.1-0.4-2.1-0.9-3.1-1.5c-0.1-0.1-0.3-0.2-0.4-0.3c-0.3-0.2-0.5-0.4-0.8-0.5c-0.1-0.1-0.3-0.2-0.4-0.3
					c-0.2-0.1-0.3-0.3-0.5-0.4c-0.5-0.4-0.9-0.8-1.3-1.2c-0.1-0.1-0.3-0.3-0.4-0.4c0,0,0,0,0,0c-1.7-1.8-3-3.9-3.8-6.3h0
					c-0.3-0.8-0.5-1.6-0.7-2.5c-0.1-0.3-0.1-0.6-0.1-0.9c0-0.2,0-0.3-0.1-0.5l0-0.1l0-0.5c0-0.5-0.1-1-0.1-1.5v0c0-0.1,0-0.1,0-0.2
					v-0.5c0,0.2,0,0.5,0,0.7v-7.5c0-0.4,0.2-0.7,0.4-1c0.2-0.2,0.5-0.4,0.8-0.4c0,0,0.1,0,0.1,0h9.1c0,0,0.1,0,0.1,0
					c0.3,0,0.6,0.2,0.8,0.4c0.2,0.2,0.4,0.5,0.4,0.8c0,0.1,0,0.1,0,0.2v7.5c0,3.3,2.7,5.9,6,5.9h28.2c0.1,0,0.2,0,0.4,0h0.1
					c0.1,0,0.2,0,0.3,0c0.4,0,0.8-0.1,1.1-0.2c0.1,0,0.2,0,0.3-0.1c0.1,0,0.2-0.1,0.3-0.1c0.2-0.1,0.4-0.1,0.5-0.2
					c0.1,0,0.2-0.1,0.3-0.1c0.1,0,0.2-0.1,0.3-0.1c0.1,0,0.2-0.1,0.2-0.2c0.2-0.1,0.3-0.2,0.5-0.3c0.1-0.1,0.3-0.2,0.4-0.4
					c0.1-0.1,0.1-0.1,0.2-0.2c0.2-0.2,0.3-0.4,0.5-0.6c0-0.1,0.1-0.1,0.1-0.2c0.2-0.4,0.4-0.8,0.6-1.2c0-0.1,0.1-0.2,0.1-0.3
					c0-0.2,0.1-0.3,0.1-0.5c0,0,0,0,0-0.1c0-0.2,0.1-0.4,0.1-0.5v0c0-0.1,0-0.1,0-0.2c0,0,0-0.1,0-0.1c0,0.1,0,0.1,0,0.2V52.1
					c0,0,0,0,0,0v0c0,0,0-0.1,0-0.1v0c0-0.1,0-0.1,0-0.2c0,0,0-0.1,0-0.1c0.1-0.2,0.2-0.3,0.3-0.5c0.2-0.2,0.5-0.4,0.8-0.4
					c0,0,0.1,0,0.1,0h9.1c0,0,0.1,0,0.1,0c0.3,0,0.6,0.2,0.8,0.4c0.1,0.1,0.1,0.1,0.1,0.2c0,0.1,0.1,0.1,0.1,0.2c0,0,0,0,0,0.1l0,0
					c0,0.1,0,0.1,0.1,0.2c0,0.1,0,0.1,0,0.2v0c0,0.1,0,0.1,0,0.2v11.6c0,0.1,0,0.2,0,0.3s0,0.2,0,0.3c0,0,0,0.1,0,0.1v0
					c0,0.2,0.1,0.5,0.1,0.7c0,0,0,0,0,0c0.1,0.7,0.4,1.4,0.8,2c0,0.1,0.1,0.1,0.2,0.2c0.1,0.1,0.2,0.2,0.2,0.3
					c0.1,0.1,0.2,0.2,0.3,0.3l0,0c0.1,0.1,0.1,0.1,0.2,0.2c1,1,2.3,1.6,3.8,1.7c0.1,0,0.2,0,0.4,0h0.1c0.1,0,0.2,0,0.3,0h11.9
					c0.1,0,0.2,0,0.3,0c1.4-0.1,2.7-0.8,3.6-1.7c1-1,1.6-2.3,1.7-3.8v0c0-0.1,0-0.3,0-0.4v-12c0-0.1,0-0.3,0.1-0.4
					c0.1-0.2,0.2-0.4,0.3-0.6c0.3-0.3,0.6-0.4,1-0.4h9.3c0.3,0,0.6,0.2,0.8,0.4c0.1,0.1,0.2,0.3,0.3,0.5c0,0,0,0.1,0,0.1
					c0,0.1,0.1,0.3,0.1,0.4v12.4c0-0.1,0-0.1,0-0.2c0.2,3,2.6,5.5,5.6,5.6c0.1,0,0.2,0,0.4,0h0.1c0,0,0,0,0.1,0c0.1,0,0.2,0,0.3,0
					h23.5c3.3,0,6.3-1.3,8.4-3.5c0.3-0.3,0.6-0.6,0.8-0.9c0.1-0.1,0.1-0.2,0.2-0.3c0,0,0,0,0,0c0,0,0,0,0,0c0.1-0.1,0.2-0.2,0.2-0.3
					c0.1-0.1,0.2-0.3,0.3-0.4c0.1-0.2,0.2-0.3,0.3-0.5c0,0,0,0,0-0.1c0.1-0.1,0.1-0.2,0.2-0.3c0.1-0.1,0.1-0.2,0.2-0.3
					c0-0.1,0.1-0.2,0.1-0.3c0,0,0,0,0,0c0.1-0.2,0.2-0.4,0.2-0.5c0-0.1,0.1-0.2,0.1-0.3c0-0.1,0.1-0.2,0.1-0.3c0,0,0,0,0,0
					c0.1-0.3,0.2-0.5,0.2-0.8l0-0.1c0-0.1,0.1-0.2,0.1-0.3c0-0.1,0-0.2,0.1-0.3c0-0.1,0-0.2,0-0.3c0-0.2,0.1-0.4,0.1-0.5
					c0-0.2,0.1-0.4,0.1-0.6c0-0.3,0-0.6,0-0.9c0-0.2,0-0.4,0-0.6c0,0,0-0.1,0-0.1v0c0,0,0,0,0,0v0c0-0.2,0-0.4-0.1-0.7
					c0-0.2,0-0.3-0.1-0.5c0-0.1,0-0.1,0-0.2c0,0,0,0,0-0.1c0,0,0-0.1,0-0.1c0,0,0-0.1,0-0.1c0-0.1,0-0.1,0-0.2c0,0,0,0,0,0
					c0-0.1,0-0.2-0.1-0.3c0,0,0,0,0-0.1c0-0.1,0-0.1,0-0.2c0,0,0,0,0,0c0,0,0-0.1,0-0.1c0-0.1,0-0.2-0.1-0.3c0,0,0,0,0,0
					c0,0,0-0.1,0-0.1c0-0.1,0-0.1-0.1-0.2c0,0,0,0,0-0.1c0,0,0-0.1,0-0.1c0,0,0,0,0-0.1c0,0,0-0.1,0-0.1c0-0.1-0.1-0.2-0.1-0.3
					c0,0,0,0,0,0c0-0.1,0-0.1-0.1-0.2c-0.1-0.2-0.2-0.4-0.2-0.5l0,0c-0.1-0.2-0.2-0.3-0.3-0.5c0,0,0,0,0,0c-0.1-0.1-0.1-0.2-0.2-0.4
					c-0.1-0.1-0.1-0.2-0.2-0.4c0,0,0,0,0,0c0-0.1-0.1-0.1-0.1-0.2c0,0-0.1-0.1-0.1-0.1c-0.1-0.1-0.2-0.2-0.2-0.3c0,0,0,0,0,0
					c0,0-0.1-0.1-0.1-0.1c0,0-0.1-0.1-0.1-0.1c0,0,0,0,0,0c0,0,0-0.1-0.1-0.1c0,0,0,0,0-0.1c-0.1-0.1-0.1-0.2-0.2-0.2
					c-0.1-0.2-0.3-0.3-0.4-0.5c-0.1-0.1-0.1-0.1-0.2-0.2c-0.2-0.2-0.3-0.3-0.5-0.4c-0.1-0.1-0.2-0.2-0.3-0.3
					c-0.3-0.3-0.6-0.5-0.9-0.7c-0.3-0.2-0.7-0.4-1-0.6c-0.2-0.1-0.3-0.2-0.5-0.3l-1.6-0.7c0,0,0,0,0,0c-0.1,0-0.2-0.1-0.4-0.1
					l-0.2-0.1c-0.2,0-0.3-0.1-0.5-0.1c0,0,0,0,0,0c-0.1,0-0.3-0.1-0.4-0.1c0,0-0.1,0-0.2,0c0,0,0,0,0,0c-0.1,0-0.3,0-0.4-0.1
					c-0.1,0-0.3,0-0.4,0c-0.2,0-0.5,0-0.7,0h0c-0.1,0-0.1,0-0.2,0h-3.7c-0.1,0-0.2,0-0.2,0h0c-0.8-0.1-1.5-0.8-1.6-1.6v0
					c0-0.1,0-0.2,0-0.2v-8.1c0-0.1,0-0.2,0-0.2v0c0.1-0.8,0.8-1.5,1.6-1.6h0c0.1,0,0.2,0,0.2,0h4c0.5,0,0.9,0,1.4,0
					c3.8,0.2,7.4,1.4,10.5,3.2c0,0,0,0,0.1,0c2.9,1.7,5.5,4,7.4,6.8c0.4,0.6,0.8,1.2,1.2,1.8c0,0,0,0,0,0c0,0,0,0,0,0.1
					c1.6,2.7,2.6,5.8,3,9c0,0.2,0.1,0.4,0.1,0.6c0,0.4,0.1,0.7,0.1,1.1C327.7,57.4,327.7,57.8,327.7,58.1z"/>
			</g>
			<g>
				<g>
					<g>
						<path class="st0" d="M327.4,134c0-0.1,0-0.2,0-0.2c-0.1-1.8-0.5-3.6-1.1-5.3c0-0.1,0-0.1-0.1-0.2c-0.2-0.6-0.5-1.2-0.7-1.7
							c-0.8-1.6-1.8-3.1-3-4.5c-0.5-0.6-1-1.1-1.5-1.6l-0.2-0.1l-0.1-0.1v0c-1.4-1.2-2.9-2.2-4.5-3c-0.6-0.3-1.2-0.5-1.8-0.7
							c-1.6-0.6-3.3-0.9-5-1.1c-0.5,0-1-0.1-1.6-0.1c-0.6,0-1.1,0-1.6,0.1c-1.7,0.1-3.3,0.5-4.9,1l-0.5,0.2l-0.3,0.1v-7.6l0-0.1
							c0-0.3-0.2-0.5-0.4-0.7c-0.2-0.2-0.5-0.3-0.8-0.4h-10c-0.3,0-0.6,0.2-0.8,0.4c-0.2,0.2-0.4,0.6-0.4,0.9V135l0,0.1v0.8
							c0.1,1.9,0.5,3.7,1.1,5.5l0,0.1c0.5,1.4,1.2,2.7,2,4c0.9,1.4,2,2.7,3.3,3.9c1.8,1.6,3.8,2.8,6.1,3.7c0.1,0.1,0.3,0.1,0.5,0.2
							c1.7,0.6,3.5,1,5.3,1.1l0.4,0c0.2,0,0.5,0,0.8,0h0.1c0.2,0,0.4,0,0.6,0l0.2,0h0.2c0,0,0.1,0,0.1,0l0.3,0c0.2,0,0.3,0,0.5,0
							l0.1,0c0,0,0.1,0,0.1,0l0.2,0c0.1,0,0.2,0,0.3,0l0.2,0l0.6-0.1c0.4-0.1,0.8-0.2,1.2-0.3l0.6-0.2c0.1,0,0.2-0.1,0.4-0.1
							l0.3-0.1c0.1,0,0.2-0.1,0.3-0.1l0.3-0.1c0.3-0.1,0.8-0.3,1.1-0.4c0.2-0.1,0.3-0.1,0.5-0.2c0.5-0.2,0.9-0.5,1.4-0.7
							c0.1,0,0.1-0.1,0.3-0.1c0.4-0.2,0.8-0.5,1.1-0.7c0.1-0.1,0.2-0.1,0.3-0.2l0.1-0.1c0.4-0.3,0.8-0.6,1.2-0.9l0.2-0.2l0.1-0.1v0
							l0.2-0.1l0.1-0.1c2.3-2.1,4.1-4.8,5.2-7.7l0-0.1c0.6-1.7,1-3.5,1.1-5.4c0-0.1,0-0.2,0-0.2c0-0.3,0-0.6,0-1
							C327.4,134.6,327.4,134.3,327.4,134z M317.5,135.4L317.5,135.4c-0.1,2.5-1.2,4.7-2.8,6.3c0,0-0.1,0.1-0.1,0.1
							c-1.6,1.6-3.8,2.6-6.2,2.8c-0.2,0-0.4,0-0.6,0c-0.2,0-0.4,0-0.6,0c-2.3-0.1-4.5-1.1-6.1-2.6c-0.1-0.1-0.1-0.1-0.2-0.2
							c0,0-0.1-0.1-0.1-0.1c-1.5-1.6-2.5-3.8-2.7-6.2v-1c0.1-2.4,1.1-4.5,2.7-6.2l0.3-0.3c1.7-1.6,4.1-2.7,6.7-2.7
							c2.6,0,5,1.1,6.8,2.8l0.1,0.1c0,0,0,0,0.1,0.1c1.5,1.6,2.5,3.7,2.7,6.1v0.1c0,0.2,0,0.3,0,0.5
							C317.5,135.1,317.5,135.2,317.5,135.4z"/>
						<path class="st0" d="M327.4,134c0-0.1,0-0.2,0-0.2c-0.1-1.8-0.5-3.6-1.1-5.3c0-0.1,0-0.1-0.1-0.2c-0.2-0.6-0.5-1.2-0.7-1.7
							c-0.8-1.6-1.8-3.1-3-4.5c-0.5-0.6-1-1.1-1.5-1.6l-0.2-0.1l-0.1-0.1v0c-1.4-1.2-2.9-2.2-4.5-3c-0.6-0.3-1.2-0.5-1.8-0.7
							c-1.6-0.6-3.3-0.9-5-1.1c-0.5,0-1-0.1-1.6-0.1c-0.6,0-1.1,0-1.6,0.1c-1.7,0.1-3.3,0.5-4.9,1l-0.5,0.2l-0.3,0.1v-7.6l0-0.1
							c0-0.3-0.2-0.5-0.4-0.7c-0.2-0.2-0.5-0.3-0.8-0.4h-10c-0.3,0-0.6,0.2-0.8,0.4c-0.2,0.2-0.4,0.6-0.4,0.9V135l0,0.1v0.8
							c0.1,1.9,0.5,3.7,1.1,5.5l0,0.1c0.5,1.4,1.2,2.7,2,4c0.9,1.4,2,2.7,3.3,3.9c1.8,1.6,3.8,2.8,6.1,3.7c0.1,0.1,0.3,0.1,0.5,0.2
							c1.7,0.6,3.5,1,5.3,1.1l0.4,0c0.2,0,0.5,0,0.8,0h0.1c0.2,0,0.4,0,0.6,0l0.2,0h0.2c0,0,0.1,0,0.1,0l0.3,0c0.2,0,0.3,0,0.5,0
							l0.1,0c0,0,0.1,0,0.1,0l0.2,0c0.1,0,0.2,0,0.3,0l0.2,0l0.6-0.1c0.4-0.1,0.8-0.2,1.2-0.3l0.6-0.2c0.1,0,0.2-0.1,0.4-0.1
							l0.3-0.1c0.1,0,0.2-0.1,0.3-0.1l0.3-0.1c0.3-0.1,0.8-0.3,1.1-0.4c0.2-0.1,0.3-0.1,0.5-0.2c0.5-0.2,0.9-0.5,1.4-0.7
							c0.1,0,0.1-0.1,0.3-0.1c0.4-0.2,0.8-0.5,1.1-0.7c0.1-0.1,0.2-0.1,0.3-0.2l0.1-0.1c0.4-0.3,0.8-0.6,1.2-0.9l0.2-0.2l0.1-0.1v0
							l0.2-0.1l0.1-0.1c2.3-2.1,4.1-4.8,5.2-7.7l0-0.1c0.6-1.7,1-3.5,1.1-5.4c0-0.1,0-0.2,0-0.2c0-0.3,0-0.6,0-1
							C327.4,134.6,327.4,134.3,327.4,134z M317.7,135.4L317.7,135.4c-0.1,2.5-1.1,4.7-2.8,6.4c0,0.1-0.1,0.1-0.1,0.1c0,0,0,0,0,0
							c-1.7,1.7-3.9,2.7-6.3,2.8c-0.2,0-0.4,0-0.6,0c-0.2,0-0.4,0-0.6,0c-2.3-0.1-4.5-1.1-6.2-2.7c-0.1-0.1-0.1-0.1-0.2-0.2
							l-0.1-0.1c-1.6-1.7-2.6-3.9-2.7-6.3v-1c0.1-2.3,1.1-4.6,2.7-6.3l0.3-0.3c1.8-1.7,4.2-2.7,6.8-2.7c2.6,0,5,1,6.9,2.8l0.1,0.1
							c0,0,0.1,0.1,0.1,0.1c1.6,1.7,2.6,3.9,2.7,6.2v0.1c0,0.2,0,0.3,0,0.5S317.7,135.2,317.7,135.4z"/>
					</g>
				</g>
				<g>
					<circle class="st0" cx="273.7" cy="114.2" r="6.3"/>
				</g>
				<path class="st0" d="M210.9,109V136c0,0.5,0,1-0.1,1.4c0,0.2,0,0.3,0,0.5l0,0.4c0,0.1,0,0.3-0.1,0.4c0,0.1,0,0.1,0,0.2
					c0,0.1,0,0.1,0,0.2c0,0.1,0,0.3-0.1,0.4c0,0.2-0.1,0.3-0.1,0.5l-0.1,0.5l0,0.1c-0.1,0.4-0.2,0.8-0.3,1.2l0,0l0,0.1l-0.2,0.5
					c-0.1,0.2-0.1,0.3-0.2,0.5l0,0.1c-0.1,0.3-0.2,0.5-0.3,0.8l0,0l0,0l0,0c0,0.1-0.1,0.2-0.1,0.3c-0.1,0.2-0.2,0.4-0.3,0.6
					c-0.1,0.1-0.2,0.3-0.2,0.4l-0.1,0.1c-0.1,0.2-0.3,0.5-0.4,0.7c-0.1,0.2-0.3,0.5-0.5,0.7c-0.1,0.2-0.2,0.3-0.4,0.5l-0.1,0.1
					c-0.1,0.2-0.2,0.3-0.3,0.4c-0.4,0.5-0.8,1-1.3,1.4c-1.3,1.3-2.9,2.5-4.5,3.3c-0.8,0.4-1.5,0.7-2.4,1c-1.7,0.6-3.4,0.9-5.1,1
					h-2.1c-1.7-0.1-3.4-0.4-5.1-1c-5.2-1.8-9.5-6.1-11.3-11.3c-0.5-1.4-0.8-2.8-1-4.3c0-0.2,0-0.4-0.1-0.6c0-0.2,0.2-0.5,0.4-0.7
					c0.2-0.2,0.5-0.3,0.8-0.4c0,0,0.1,0,0.1,0c0,0,9.7,0,9.7,0c0,0,0.1,0,0.1,0c0.3,0,0.6,0.2,0.8,0.4c0.2,0.2,0.3,0.4,0.3,0.7
					l0,0.1c0.6,3,3.2,5.1,6.2,5.1c1.7,0,3.3-0.7,4.5-1.9c1.2-1.2,1.9-2.8,1.9-4.5V109c0-0.3,0.1-0.7,0.4-0.9
					c0.2-0.2,0.5-0.3,0.8-0.4h9.8c0.3,0,0.6,0.2,0.8,0.4c0.2,0.2,0.3,0.5,0.4,0.7C210.9,108.9,210.9,109,210.9,109z"/>
				<path class="st0" d="M210.9,109V136c0,0.5,0,1-0.1,1.4c0,0.2,0,0.3,0,0.5l0,0.4c0,0.1,0,0.3-0.1,0.4c0,0.1,0,0.1,0,0.2
					c0,0.1,0,0.1,0,0.2c0,0.1,0,0.3-0.1,0.4c0,0.2-0.1,0.3-0.1,0.5l-0.1,0.5l0,0.1c-0.1,0.4-0.2,0.8-0.3,1.2l0,0l0,0.1l-0.2,0.5
					c-0.1,0.2-0.1,0.3-0.2,0.5l0,0.1c-0.1,0.3-0.2,0.5-0.3,0.8l0,0l0,0l0,0c0,0.1-0.1,0.2-0.1,0.3c-0.1,0.2-0.2,0.4-0.3,0.6
					c-0.1,0.1-0.2,0.3-0.2,0.4l-0.1,0.1c-0.1,0.2-0.3,0.5-0.4,0.7c-0.1,0.2-0.3,0.5-0.5,0.7c-0.1,0.2-0.2,0.3-0.4,0.5l-0.1,0.1
					c-0.1,0.2-0.2,0.3-0.3,0.4c-0.4,0.5-0.8,1-1.3,1.4c-1.3,1.3-2.9,2.5-4.5,3.3c-0.8,0.4-1.5,0.7-2.4,1c-1.7,0.6-3.4,0.9-5.1,1
					h-2.1c-1.7-0.1-3.4-0.4-5.1-1c-5.2-1.8-9.5-6.1-11.3-11.3c-0.5-1.4-0.8-2.8-1-4.3c0-0.2,0-0.4-0.1-0.6c0-0.2,0.2-0.5,0.4-0.7
					c0.2-0.2,0.5-0.3,0.8-0.4c0,0,0.1,0,0.1,0c0,0,9.7,0,9.7,0c0,0,0.1,0,0.1,0c0.3,0,0.6,0.2,0.8,0.4c0.2,0.2,0.3,0.4,0.3,0.7
					l0,0.1c0.6,3,3.2,5.1,6.2,5.1c1.7,0,3.3-0.7,4.5-1.9c1.2-1.2,1.9-2.8,1.9-4.5V109c0-0.3,0.1-0.7,0.4-0.9
					c0.2-0.2,0.5-0.3,0.8-0.4h9.8c0.3,0,0.6,0.2,0.8,0.4c0.2,0.2,0.3,0.5,0.4,0.7C210.9,108.9,210.9,109,210.9,109z"/>
				<path class="st0" d="M258.3,133.4c-0.1-1.8-0.5-3.6-1.1-5.4c0-0.1-0.1-0.2-0.1-0.3c-0.2-0.6-0.4-1.1-0.7-1.6
					c-0.8-1.7-1.9-3.3-3.1-4.7c-0.5-0.5-1-1-1.4-1.5l-0.2-0.1l-0.1-0.1v0c-1.4-1.2-2.9-2.2-4.5-3c-0.5-0.2-1.1-0.5-1.8-0.8
					c-1.6-0.6-3.3-0.9-5-1.1c-0.6,0-1.1-0.1-1.6-0.1c-0.4,0-1,0-1.6,0.1c-1.7,0.1-3.4,0.5-4.9,1c-2.4,0.9-4.7,2.2-6.6,3.9
					c-0.5,0.4-1,0.9-1.5,1.5c-0.7,0.7-1.3,1.5-1.8,2.3c-0.8,1.3-1.5,2.6-2,3.9l-0.1,0.4c-0.6,1.8-1,3.6-1.1,5.4l0,0.9
					c0,0,0,0.1,0,0.2l0,0.1l0,0.1v0.8c0.1,1.9,0.5,3.8,1.1,5.6l0.1,0.1c0.5,1.4,1.2,2.8,2,4.1c0.9,1.4,2,2.7,3.3,3.9
					c1.9,1.7,4.1,3,6.6,3.9c1.9,0.6,3.3,1,5,1.1l0.3,0c0.3,0,0.6,0,0.9,0c0,0,0,0,0,0c0.1,0,0.2,0,0.2,0l0.6,0l0.1,0
					c0.1,0,0.1,0,0.2,0h0c0.3,0,0.5,0,0.8-0.1c0,0,0.1,0,0.2,0l0.1,0c0.1,0,0.2,0,0.4-0.1l0.1,0c0.2,0,0.4-0.1,0.6-0.1
					c0.4-0.1,0.8-0.1,1.2-0.3l0.3-0.1c0.3-0.1,1-0.3,1.3-0.4l0.4-0.1c0.3-0.1,0.6-0.2,1-0.4c0.2-0.1,0.4-0.2,0.6-0.3
					c0,0,0.7-0.4,0.7-0.4v1c0,0.7,0.6,1.3,1.3,1.3h8.4c0.3,0,0.7-0.1,0.9-0.4c0.2-0.2,0.3-0.5,0.4-0.8v-19.6
					C258.3,133.6,258.3,133.5,258.3,133.4z M248.3,135.1C248.3,135.1,248.3,135.2,248.3,135.1c-0.1,1.6-0.5,3-1.2,4.3
					c-0.4,0.8-1,1.5-1.6,2.1c0,0-0.1,0.1-0.1,0.1c-1.6,1.6-3.8,2.6-6.2,2.8c-0.2,0-0.4,0-0.6,0c-0.2,0-0.4,0-0.6,0
					c-2.4-0.1-4.5-1.1-6.1-2.7c-0.1-0.1-0.1-0.1-0.2-0.2c-1.6-1.7-2.7-3.9-2.8-6.3v-0.4c0,0,0-0.1,0-0.1c0,0,0-0.1,0-0.1v-0.4
					c0.1-2.4,1.1-4.6,2.7-6.2c0.1-0.1,0.1-0.2,0.2-0.2c0,0,0.1-0.1,0.1-0.1c1.7-1.7,4.1-2.7,6.7-2.7c2.7,0,5.1,1.1,6.8,2.8
					c0,0,0,0,0,0c0.1,0.1,0.1,0.1,0.2,0.2c1.5,1.6,2.5,3.8,2.7,6.1c0,0,0,0.1,0,0.1c0,0.2,0,0.3,0,0.5
					C248.4,134.8,248.4,134.9,248.3,135.1z"/>
				<path class="st0" d="M279.5,151.5v1.7c0,0.3-0.2,0.6-0.4,0.8c-0.2,0.2-0.5,0.4-0.9,0.4h-9.6c-0.7,0-1.3-0.6-1.3-1.3v-1.5
					c0,0,0-0.1,0-0.1v-12.1l0-12.4c0-0.1,0-0.2,0-0.3c0-0.2,0.1-0.3,0.2-0.4c0-0.1,0.1-0.1,0.2-0.2c0.2-0.2,0.5-0.3,0.8-0.4
					c0,0,0.1,0,0.1,0h9.6c0,0,0.1,0,0.1,0c0.3,0,0.6,0.2,0.8,0.4c0.2,0.2,0.3,0.4,0.4,0.7c0,0.1,0,0.1,0,0.2v0.1L279.5,151.5z"/>
			</g>
		</g>
	</g>
</g>
</svg>
