<svg width="18" height="21" viewBox="0 0 18 21" fill="none" xmlns="http://www.w3.org/2000/svg">
<path d="M7 3.00006L7.00004 2.43C7.08855 2.36092 7.18561 2.30192 7.31095 2.24754C7.59082 2.12611 8.08502 2 9.00005 2C9.91506 2 10.4093 2.12611 10.6891 2.24754C10.8144 2.30192 10.9115 2.36092 11 2.42998V3H13V1.59802L12.7218 1.30788C12.4793 1.055 12.1175 0.687178 11.4852 0.412808C10.8736 0.147454 10.085 0 9.00005 0C7.91511 0 7.12646 0.147442 6.51489 0.412789C5.88254 0.687155 5.52078 1.05498 5.27826 1.3079L5.00009 1.59801L5 2.99994L7 3.00006Z" fill="black"/>
<path fill-rule="evenodd" clip-rule="evenodd" d="M5.7587 5H12.2413C13.0463 4.99999 13.7106 4.99998 14.2518 5.04419C14.8139 5.09012 15.3306 5.18868 15.816 5.43597C16.5686 5.81947 17.1805 6.43139 17.564 7.18404C17.8113 7.66937 17.9099 8.18608 17.9558 8.74817C18 9.28936 18 9.95372 18 10.7587V15.2413C18 16.0463 18 16.7106 17.9558 17.2518C17.9099 17.8139 17.8113 18.3306 17.564 18.816C17.1805 19.5686 16.5686 20.1805 15.816 20.564C15.3306 20.8113 14.8139 20.9099 14.2518 20.9558C13.7107 21 13.0464 21 12.2415 21H5.75873C4.95383 21 4.28934 21 3.74818 20.9558C3.18608 20.9099 2.66938 20.8113 2.18404 20.564C1.43139 20.1805 0.819469 19.5686 0.435976 18.816C0.188685 18.3306 0.0901205 17.8139 0.0441953 17.2518C-2.14241e-05 16.7106 -1.15594e-05 16.0463 3.91215e-07 15.2413V10.7587C-1.15594e-05 9.95374 -2.14241e-05 9.28936 0.0441953 8.74817C0.0901205 8.18608 0.188685 7.66937 0.435976 7.18404C0.819469 6.43139 1.43139 5.81947 2.18404 5.43597C2.66938 5.18868 3.18608 5.09012 3.74818 5.04419C4.28937 4.99998 4.95374 4.99999 5.7587 5ZM9.00057 17C7.80973 17.0006 6.5934 16.695 5.40003 15.8L6.60003 14.2C7.40665 14.805 8.18858 15.0004 8.99948 15C9.81037 14.9996 10.5941 14.8045 11.4 14.2L12.6 15.8C11.406 16.6955 10.1879 16.9994 9.00057 17ZM5.5 10C4.67157 10 4 10.6716 4 11.5C4 12.3284 4.67157 13 5.5 13C6.32843 13 7 12.3284 7 11.5C7 10.6716 6.32843 10 5.5 10ZM11 11.5C11 10.6716 11.6716 10 12.5 10C13.3284 10 14 10.6716 14 11.5C14 12.3284 13.3284 13 12.5 13C11.6716 13 11 12.3284 11 11.5Z" fill="black"/>
</svg>
