<svg width="32" height="32" viewBox="0 0 32 32" fill="none" xmlns="http://www.w3.org/2000/svg">
<path d="M21.654 6.24402C21.4723 6.08695 21.2402 6.00051 21 6.00051C20.7598 6.00051 20.5277 6.08695 20.346 6.24402C19.323 7.15887 18.3613 8.13998 17.467 9.18102C15.8626 6.60844 13.9059 4.27312 11.654 2.24302C11.4723 2.08595 11.2402 1.99951 11 1.99951C10.7598 1.99951 10.5277 2.08595 10.346 2.24302C10.005 2.53902 2 9.54802 2 17C2.00291 19.3861 2.95206 21.6736 4.63925 23.3608C6.32645 25.048 8.61395 25.9971 11 26C11.788 26 12.5725 25.8954 13.333 25.689C14.3538 27.3642 15.8945 28.6596 17.7202 29.3775C19.5459 30.0953 21.5563 30.1963 23.4447 29.6651C25.3331 29.1338 26.9959 27.9994 28.1795 26.4349C29.3631 24.8704 30.0024 22.9618 30 21C30 13.543 22 6.53802 21.654 6.24402ZM12.462 23.828C11.9822 23.9376 11.4921 23.9953 11 24C9.14413 23.9979 7.36489 23.2597 6.05259 21.9474C4.7403 20.6351 4.00212 18.8559 4 17C4 11.614 9.149 6.15402 11 4.36402C12.9957 6.27827 14.7167 8.45965 16.114 10.846C14.047 13.577 12 17.229 12 21C12.0009 21.9614 12.1569 22.9163 12.462 23.828ZM21 28C19.1441 27.9979 17.3649 27.2597 16.0526 25.9474C14.7403 24.6351 14.0021 22.8559 14 21C14 15.611 19.147 10.154 21 8.36502C22.853 10.154 28 15.611 28 21C27.9979 22.8559 27.2597 24.6351 25.9474 25.9474C24.6351 27.2597 22.8559 27.9979 21 28ZM22 25C22 25.2652 21.8946 25.5196 21.7071 25.7071C21.5196 25.8947 21.2652 26 21 26C19.5779 25.9984 18.2144 25.4328 17.2088 24.4272C16.2032 23.4216 15.6376 22.0582 15.636 20.636C15.636 20.3708 15.7414 20.1164 15.9289 19.9289C16.1164 19.7414 16.3708 19.636 16.636 19.636C16.9012 19.636 17.1556 19.7414 17.3431 19.9289C17.5306 20.1164 17.636 20.3708 17.636 20.636C17.6371 21.5279 17.9918 22.3829 18.6225 23.0136C19.2531 23.6442 20.1081 23.999 21 24C21.2652 24 21.5196 24.1054 21.7071 24.2929C21.8946 24.4804 22 24.7348 22 25ZM9.889 20.975C9.82869 21.0917 9.74597 21.1954 9.64557 21.2801C9.54518 21.3649 9.42907 21.429 9.30388 21.4688C9.1787 21.5086 9.04689 21.5234 8.916 21.5123C8.7851 21.5012 8.65767 21.4644 8.541 21.404C7.66551 20.9533 6.93147 20.2696 6.41977 19.4283C5.90807 18.587 5.63858 17.6207 5.641 16.636C5.641 16.3708 5.74636 16.1164 5.93389 15.9289C6.12143 15.7414 6.37578 15.636 6.641 15.636C6.90622 15.636 7.16057 15.7414 7.34811 15.9289C7.53564 16.1164 7.641 16.3708 7.641 16.636C7.63974 17.2541 7.80933 17.8606 8.13103 18.3884C8.45273 18.9162 8.91403 19.3449 9.464 19.627C9.699 19.7495 9.87577 19.9603 9.95546 20.2131C10.0351 20.4658 10.0112 20.7399 9.889 20.975Z" fill="url(#paint0_linear_781_13343)"/>
<defs>
<linearGradient id="paint0_linear_781_13343" x1="10.889" y1="27.326" x2="22.718" y2="6.83702" gradientUnits="userSpaceOnUse">
<stop stop-color="#364989"/>
<stop offset="1" stop-color="#8C9BCE"/>
</linearGradient>
</defs>
</svg>
