<svg width="37" height="36" viewBox="0 0 37 36" fill="none" xmlns="http://www.w3.org/2000/svg">
<g clip-path="url(#clip0_817_5074)">
<path d="M7.70756 6.48462L7.90355 5.31238C8.17846 4.17751 8.82665 3.1679 9.7441 2.44556C10.6616 1.72322 11.7951 1.33004 12.9628 1.3291C13.894 1.3291 14.787 1.699 15.4454 2.35744C16.1038 3.01588 16.4738 3.90893 16.4738 4.8401V30.5497C16.4738 32.7107 14.3015 34.6723 12.1417 34.6723C8.66237 34.6723 6.12991 32.3641 6.12991 28.7194C4.29399 27.3128 3.05835 24.9446 3.63823 22.7054L3.90213 21.6929L3.773 21.5921C0.764861 19.2431 0.895084 15.4943 4.0312 13.3243" stroke="#364989" stroke-width="1.5" stroke-linecap="round" stroke-linejoin="round"/>
<path d="M11.8506 8.49737C10.1789 6.20956 7.58306 5.76672 4.94754 7.59131C3.61675 8.66499 2.65176 10.7761 4.03124 13.3222C4.03124 13.3222 7.11642 11.7728 9.20943 15.1841" stroke="#364989" stroke-width="1.5" stroke-linecap="round" stroke-linejoin="round"/>
<path d="M6.12891 28.7194C6.12891 28.7194 6.52983 26.7532 9.45642 26.1733" stroke="#364989" stroke-width="1.5" stroke-linecap="round" stroke-linejoin="round"/>
<path d="M10.9344 27.7203C11.2606 27.8335 8.38612 26.6692 9.71011 24.1753" stroke="#364989" stroke-width="1.5" stroke-linecap="round" stroke-linejoin="round"/>
<path d="M16.4715 19.1524C16.4715 19.1524 14.2709 18.0051 12.3613 19.8784" stroke="#364989" stroke-width="1.5" stroke-linecap="round" stroke-linejoin="round"/>
<path d="M3.90234 21.6929C3.90234 21.6929 4.76422 19.6928 7.81539 20.4992" stroke="#364989" stroke-width="1.5" stroke-linecap="round" stroke-linejoin="round"/>
<path d="M29.3426 6.35549L29.0956 5.31238C28.8207 4.17751 28.1725 3.1679 27.2551 2.44556C26.3376 1.72322 25.2041 1.33004 24.0364 1.3291C23.1052 1.3291 22.2122 1.699 21.5537 2.35744C20.8953 3.01588 20.5254 3.90893 20.5254 4.84011V30.5497C20.5252 31.0635 20.6263 31.5722 20.8229 32.0469C21.0194 32.5216 21.3076 32.9529 21.6709 33.3162C22.0341 33.6795 22.4655 33.9676 22.9401 34.1642C23.4148 34.3607 23.9236 34.4618 24.4373 34.4617C28.8261 34.4617 30.2883 32.4921 31.2906 29.5621C33.5467 28.2891 33.942 25.7872 33.3587 23.5481L33.0959 22.5367L33.225 22.4347C33.9245 21.8885 34.4858 21.1854 34.8636 20.3823C35.2413 19.5792 35.4251 18.6986 35.4 17.8114C35.3749 16.9243 35.1415 16.0554 34.7189 15.275C34.2962 14.4946 33.6961 13.8244 32.9668 13.3186" stroke="#364989" stroke-width="1.5" stroke-linecap="round" stroke-linejoin="round"/>
<path d="M25.584 8.7882C27.2647 5.84349 29.8799 5.94317 32.051 7.58768C33.6842 8.8607 33.9764 11.8382 32.9684 13.3185C32.9684 13.3185 28.4562 12.4125 26.071 14.7682" stroke="#364989" stroke-width="1.5" stroke-linecap="round" stroke-linejoin="round"/>
<path d="M26.3058 16.7444C26.3058 16.7444 27.0227 14.2278 24.2773 13.9775" stroke="#364989" stroke-width="1.5" stroke-linecap="round" stroke-linejoin="round"/>
<path d="M31.2912 29.5622C31.2912 29.5622 30.8903 27.596 27.9648 27.0161" stroke="#364989" stroke-width="1.5" stroke-linecap="round" stroke-linejoin="round"/>
<path d="M26.4889 28.5631C26.1627 28.6763 29.0372 27.512 27.7132 25.0181" stroke="#364989" stroke-width="1.5" stroke-linecap="round" stroke-linejoin="round"/>
<path d="M33.0978 22.5367C31.9949 21.6506 30.5934 21.2227 29.1836 21.3418" stroke="#364989" stroke-width="1.5" stroke-linecap="round" stroke-linejoin="round"/>
<path d="M20.5273 22.5366C21.4332 22.5071 22.3271 22.7497 23.0938 23.2331" stroke="#364989" stroke-width="1.5" stroke-linecap="round" stroke-linejoin="round"/>
</g>
<defs>
<clipPath id="clip0_817_5074">
<rect width="35.0534" height="34.5902" fill="white" transform="translate(0.972656 0.705078)"/>
</clipPath>
</defs>
</svg>
