<svg width="16" height="16" viewBox="0 0 16 16" fill="none" xmlns="http://www.w3.org/2000/svg">
<path d="M11.1671 2.37301V1.33301C11.1671 1.05967 10.9405 0.833008 10.6671 0.833008C10.3938 0.833008 10.1671 1.05967 10.1671 1.33301V2.33301H5.83381V1.33301C5.83381 1.05967 5.60715 0.833008 5.33381 0.833008C5.06048 0.833008 4.83381 1.05967 4.83381 1.33301V2.37301C3.03381 2.53967 2.16048 3.61301 2.02714 5.20634C2.01381 5.39967 2.17381 5.55967 2.36048 5.55967H13.6405C13.8338 5.55967 13.9938 5.39301 13.9738 5.20634C13.8405 3.61301 12.9671 2.53967 11.1671 2.37301Z" fill="#364989"/>
<path d="M13.3333 6.55957H2.66667C2.3 6.55957 2 6.85957 2 7.22624V11.3329C2 13.3329 3 14.6662 5.33333 14.6662H10.6667C13 14.6662 14 13.3329 14 11.3329V7.22624C14 6.85957 13.7 6.55957 13.3333 6.55957ZM6.14 12.1396C6.07333 12.1996 6 12.2462 5.92 12.2796C5.84 12.3129 5.75333 12.3329 5.66667 12.3329C5.58 12.3329 5.49333 12.3129 5.41333 12.2796C5.33333 12.2462 5.26 12.1996 5.19333 12.1396C5.07333 12.0129 5 11.8396 5 11.6662C5 11.4929 5.07333 11.3196 5.19333 11.1929C5.26 11.1329 5.33333 11.0862 5.41333 11.0529C5.57333 10.9862 5.76 10.9862 5.92 11.0529C6 11.0862 6.07333 11.1329 6.14 11.1929C6.26 11.3196 6.33333 11.4929 6.33333 11.6662C6.33333 11.8396 6.26 12.0129 6.14 12.1396ZM6.28 9.58624C6.24667 9.66624 6.2 9.73957 6.14 9.80624C6.07333 9.86624 6 9.9129 5.92 9.94624C5.84 9.97957 5.75333 9.99957 5.66667 9.99957C5.58 9.99957 5.49333 9.97957 5.41333 9.94624C5.33333 9.9129 5.26 9.86624 5.19333 9.80624C5.13333 9.73957 5.08667 9.66624 5.05333 9.58624C5.02 9.50624 5 9.41957 5 9.3329C5 9.24624 5.02 9.15957 5.05333 9.07957C5.08667 8.99957 5.13333 8.92624 5.19333 8.85957C5.26 8.79957 5.33333 8.7529 5.41333 8.71957C5.57333 8.6529 5.76 8.6529 5.92 8.71957C6 8.7529 6.07333 8.79957 6.14 8.85957C6.2 8.92624 6.24667 8.99957 6.28 9.07957C6.31333 9.15957 6.33333 9.24624 6.33333 9.3329C6.33333 9.41957 6.31333 9.50624 6.28 9.58624ZM8.47333 9.80624C8.40667 9.86624 8.33333 9.9129 8.25333 9.94624C8.17333 9.97957 8.08667 9.99957 8 9.99957C7.91333 9.99957 7.82667 9.97957 7.74667 9.94624C7.66667 9.9129 7.59333 9.86624 7.52667 9.80624C7.40667 9.67957 7.33333 9.50624 7.33333 9.3329C7.33333 9.15957 7.40667 8.98624 7.52667 8.85957C7.59333 8.79957 7.66667 8.7529 7.74667 8.71957C7.90667 8.64624 8.09333 8.64624 8.25333 8.71957C8.33333 8.7529 8.40667 8.79957 8.47333 8.85957C8.59333 8.98624 8.66667 9.15957 8.66667 9.3329C8.66667 9.50624 8.59333 9.67957 8.47333 9.80624Z" fill="#364989"/>
</svg>
