<svg width="15" height="15" viewBox="0 0 15 15" fill="none" xmlns="http://www.w3.org/2000/svg">
<path d="M10.4229 2.72266C11.1734 2.79215 11.6766 3.04398 12.0068 3.39453C12.3043 3.71039 12.4997 4.14809 12.5781 4.71289H2.42285C2.50134 4.14799 2.69661 3.71039 2.99414 3.39453C3.32432 3.04408 3.82687 2.79218 4.57715 2.72266L4.96875 2.68555V2.6875H10.0312V2.68555L10.4229 2.72266Z" fill="#9CA3AF" stroke="#9CA3AF"/>
<path d="M12.5 6.15002H2.5C2.15625 6.15002 1.875 6.43127 1.875 6.77502V10.625C1.875 12.5 2.8125 13.75 5 13.75H10C12.1875 13.75 13.125 12.5 13.125 10.625V6.77502C13.125 6.43127 12.8438 6.15002 12.5 6.15002ZM5.75625 11.3813C5.725 11.4063 5.69375 11.4375 5.6625 11.4563C5.625 11.4813 5.5875 11.5 5.55 11.5125C5.5125 11.5313 5.475 11.5438 5.4375 11.55C5.39375 11.5563 5.35625 11.5625 5.3125 11.5625C5.23125 11.5625 5.15 11.5438 5.075 11.5125C4.99375 11.4813 4.93125 11.4375 4.86875 11.3813C4.75625 11.2625 4.6875 11.1 4.6875 10.9375C4.6875 10.775 4.75625 10.6125 4.86875 10.4938C4.93125 10.4375 4.99375 10.3938 5.075 10.3625C5.1875 10.3125 5.3125 10.3 5.4375 10.325C5.475 10.3313 5.5125 10.3438 5.55 10.3625C5.5875 10.375 5.625 10.3938 5.6625 10.4188C5.69375 10.4438 5.725 10.4688 5.75625 10.4938C5.86875 10.6125 5.9375 10.775 5.9375 10.9375C5.9375 11.1 5.86875 11.2625 5.75625 11.3813ZM5.75625 9.19377C5.6375 9.30627 5.475 9.37502 5.3125 9.37502C5.15 9.37502 4.9875 9.30627 4.86875 9.19377C4.75625 9.07502 4.6875 8.91252 4.6875 8.75002C4.6875 8.58752 4.75625 8.42502 4.86875 8.30627C5.04375 8.13127 5.31875 8.07502 5.55 8.17502C5.63125 8.20627 5.7 8.25002 5.75625 8.30627C5.86875 8.42502 5.9375 8.58752 5.9375 8.75002C5.9375 8.91252 5.86875 9.07502 5.75625 9.19377ZM7.94375 11.3813C7.825 11.4938 7.6625 11.5625 7.5 11.5625C7.3375 11.5625 7.175 11.4938 7.05625 11.3813C6.94375 11.2625 6.875 11.1 6.875 10.9375C6.875 10.775 6.94375 10.6125 7.05625 10.4938C7.2875 10.2625 7.7125 10.2625 7.94375 10.4938C8.05625 10.6125 8.125 10.775 8.125 10.9375C8.125 11.1 8.05625 11.2625 7.94375 11.3813ZM7.94375 9.19377C7.9125 9.21877 7.88125 9.24377 7.85 9.26877C7.8125 9.29377 7.775 9.31252 7.7375 9.32502C7.7 9.34377 7.6625 9.35627 7.625 9.36252C7.58125 9.36877 7.54375 9.37502 7.5 9.37502C7.3375 9.37502 7.175 9.30627 7.05625 9.19377C6.94375 9.07502 6.875 8.91252 6.875 8.75002C6.875 8.58752 6.94375 8.42502 7.05625 8.30627C7.1125 8.25002 7.18125 8.20627 7.2625 8.17502C7.49375 8.07502 7.76875 8.13127 7.94375 8.30627C8.05625 8.42502 8.125 8.58752 8.125 8.75002C8.125 8.91252 8.05625 9.07502 7.94375 9.19377ZM10.1312 11.3813C10.0125 11.4938 9.85 11.5625 9.6875 11.5625C9.525 11.5625 9.3625 11.4938 9.24375 11.3813C9.13125 11.2625 9.0625 11.1 9.0625 10.9375C9.0625 10.775 9.13125 10.6125 9.24375 10.4938C9.475 10.2625 9.9 10.2625 10.1312 10.4938C10.2437 10.6125 10.3125 10.775 10.3125 10.9375C10.3125 11.1 10.2437 11.2625 10.1312 11.3813ZM10.1312 9.19377C10.1 9.21877 10.0687 9.24377 10.0375 9.26877C10 9.29377 9.9625 9.31252 9.925 9.32502C9.8875 9.34377 9.85 9.35627 9.8125 9.36252C9.76875 9.36877 9.725 9.37502 9.6875 9.37502C9.525 9.37502 9.3625 9.30627 9.24375 9.19377C9.13125 9.07502 9.0625 8.91252 9.0625 8.75002C9.0625 8.58752 9.13125 8.42502 9.24375 8.30627C9.30625 8.25002 9.36875 8.20627 9.45 8.17502C9.5625 8.12502 9.6875 8.11252 9.8125 8.13752C9.85 8.14377 9.8875 8.15627 9.925 8.17502C9.9625 8.18752 10 8.20627 10.0375 8.23127C10.0687 8.25627 10.1 8.28127 10.1312 8.30627C10.2437 8.42502 10.3125 8.58752 10.3125 8.75002C10.3125 8.91252 10.2437 9.07502 10.1312 9.19377Z" fill="#9CA3AF"/>
</svg>
