<svg width="10" height="10" viewBox="0 0 10 10" fill="none" xmlns="http://www.w3.org/2000/svg">
<path d="M9.16732 3.14567C9.16732 3.42067 8.94232 3.64567 8.66732 3.64567H1.33398C1.05898 3.64567 0.833984 3.42067 0.833984 3.14567V3.1415C0.833984 2.18734 1.60482 1.4165 2.55898 1.4165H7.43815C8.39232 1.4165 9.16732 2.1915 9.16732 3.14567Z" fill="#6B7280"/>
<path d="M0.833984 4.771V6.8585C0.833984 7.81266 1.60482 8.5835 2.55898 8.5835H7.43815C8.39232 8.5835 9.16732 7.8085 9.16732 6.85433V4.771C9.16732 4.496 8.94232 4.271 8.66732 4.271H1.33398C1.05898 4.271 0.833984 4.496 0.833984 4.771ZM3.33398 7.18766H2.50065C2.32982 7.18766 2.18815 7.046 2.18815 6.87516C2.18815 6.70433 2.32982 6.56266 2.50065 6.56266H3.33398C3.50482 6.56266 3.64648 6.70433 3.64648 6.87516C3.64648 7.046 3.50482 7.18766 3.33398 7.18766ZM6.04232 7.18766H4.37565C4.20482 7.18766 4.06315 7.046 4.06315 6.87516C4.06315 6.70433 4.20482 6.56266 4.37565 6.56266H6.04232C6.21315 6.56266 6.35482 6.70433 6.35482 6.87516C6.35482 7.046 6.21315 7.18766 6.04232 7.18766Z" fill="#6B7280"/>
</svg>
