<svg width="36" height="36" viewBox="0 0 36 36" fill="none" xmlns="http://www.w3.org/2000/svg">
<g clip-path="url(#clip0_819_7810)">
<path d="M1.6084 19.2551H11.7896L14.7627 10.479L18.5972 25.4434L22.8797 15.0461L25.59 19.416H35.4342" stroke="#364989" stroke-width="1.5" stroke-linecap="round" stroke-linejoin="round"/>
<path d="M33.6178 15.6887C34.3877 13.9284 34.672 12.312 34.672 10.876C34.672 7.77882 32.6809 1.37036 26.2125 1.37036C19.7441 1.37036 18.1192 7.59976 18.1192 7.59976C18.1192 7.59976 16.4943 1.37641 10.0259 1.37641C3.55752 1.37641 1.56543 7.7885 1.56543 10.882C1.56543 12.2697 1.8314 13.8267 2.54532 15.5193" stroke="#364989" stroke-width="1.5" stroke-linecap="round" stroke-linejoin="round"/>
<path d="M8.24072 23.5076C12.1172 28.1182 16.0863 32.5087 18.1194 34.6295C20.1502 32.5111 24.1172 28.1255 27.9873 23.5197" stroke="#364989" stroke-width="1.5" stroke-linecap="round" stroke-linejoin="round"/>
</g>
<defs>
<clipPath id="clip0_819_7810">
<rect width="35.0534" height="34.5902" fill="white" transform="translate(0.973145 0.704834)"/>
</clipPath>
</defs>
</svg>
