<svg width="38" height="38" viewBox="0 0 38 38" fill="none" xmlns="http://www.w3.org/2000/svg">
<path fill-rule="evenodd" clip-rule="evenodd" d="M35.0993 12.7663C38.1986 15.8657 38.1986 20.9372 35.0993 24.0365L24.036 35.0999C20.9368 38.1992 15.8652 38.1993 12.7659 35.0999C9.66659 32.0007 9.66659 26.9291 12.7659 23.8298L23.8292 12.7665C26.9285 9.66706 32 9.66706 35.0993 12.7663Z" fill="#859BE4"/>
<path fill-rule="evenodd" clip-rule="evenodd" d="M35.507 12.3594C38.8312 15.6836 38.8312 21.1195 35.5071 24.4436L24.4436 35.507C21.1195 38.8312 15.6835 38.8311 12.3594 35.507C9.03517 32.1828 9.03517 26.7468 12.3593 23.4227L23.4227 12.3593C26.7469 9.03517 32.1828 9.03517 35.507 12.3594ZM34.6929 13.1736C31.8185 10.2992 27.1113 10.2991 24.2369 13.1736L13.1736 24.2369C10.2992 27.1113 10.2992 31.8185 13.1735 34.6929C16.048 37.5674 20.755 37.5674 23.6295 34.6929L34.6929 23.6295C37.5673 20.7551 37.5673 16.048 34.6929 13.1736Z" fill="#364989"/>
<path d="M29.2065 24.1801C32.2551 24.1801 34.7265 21.7087 34.7265 18.6601C34.7265 15.6115 32.2551 13.1401 29.2065 13.1401C26.1579 13.1401 23.6865 15.6115 23.6865 18.6601C23.6865 21.7087 26.1579 24.1801 29.2065 24.1801Z" fill="white"/>
<path fill-rule="evenodd" clip-rule="evenodd" d="M33.5163 14.3499C35.8969 16.7305 35.8969 20.5898 33.5163 22.9704C31.1358 25.351 27.2763 25.351 24.8958 22.9704C22.5152 20.5899 22.5152 16.7304 24.8958 14.3499C27.2764 11.9693 31.1357 11.9693 33.5163 14.3499ZM32.7022 15.164C30.7713 13.2332 27.6407 13.2332 25.71 15.1639C23.7792 17.0947 23.7792 20.2254 25.71 22.1562C27.6407 24.0869 30.7714 24.0869 32.7022 22.1562C34.633 20.2254 34.633 17.0948 32.7022 15.164Z" fill="#364989"/>
<path fill-rule="evenodd" clip-rule="evenodd" d="M27.6767 21.3885C27.9834 21.3066 28.2986 21.4888 28.3806 21.7956C28.4626 22.1025 28.2804 22.4176 27.9735 22.4996C26.3933 22.9224 24.944 21.4731 25.3668 19.8929C25.4488 19.5861 25.7639 19.4038 26.0708 19.4858C26.3776 19.5678 26.5598 19.8829 26.4779 20.1897C26.2836 20.9157 26.9505 21.5832 27.6767 21.3885ZM26.878 15.7789C26.6458 15.995 26.2823 15.982 26.0662 15.7497C25.8501 15.5174 25.8631 15.1539 26.0954 14.9378C27.4306 13.6938 29.64 14.6068 29.6726 16.4583C29.682 16.9919 29.4921 17.5282 29.1029 17.9454C28.8868 18.1777 28.5233 18.1907 28.291 17.9746C28.0587 17.7585 28.0457 17.395 28.2618 17.1627C28.8459 16.5358 28.3955 15.5298 27.5644 15.5152C27.3187 15.5108 27.0712 15.5987 26.878 15.7789ZM30.7038 19.6045C30.4715 19.8206 30.108 19.8076 29.8919 19.5753C29.6758 19.343 29.6888 18.9795 29.9211 18.7634C31.2563 17.5195 33.4657 18.4325 33.4983 20.2839C33.5077 20.8175 33.3178 21.3538 32.9286 21.7709C32.7125 22.0032 32.349 22.0163 32.1167 21.8002C31.8844 21.5841 31.8714 21.2206 32.0875 20.9883C32.6716 20.3613 32.2213 19.3554 31.3901 19.3408C31.1443 19.3365 30.8968 19.4244 30.7038 19.6045ZM19.5132 16.8378C19.3667 16.5559 19.4764 16.2085 19.7584 16.062C20.0404 15.9154 20.3877 16.0252 20.5343 16.3071C22.9501 20.9432 24.4057 24.9144 24.9011 28.2207C25.4099 31.6169 24.909 34.3297 23.3983 36.3591C23.2095 36.6137 22.85 36.6671 22.5953 36.4783C22.3407 36.2895 22.2873 35.93 22.4761 35.6754C23.7964 33.9019 24.2253 31.4724 23.763 28.3871C23.2872 25.2118 21.8707 21.362 19.5132 16.8378Z" fill="#364989"/>
<path fill-rule="evenodd" clip-rule="evenodd" d="M32.4509 26.3143C32.7527 26.4111 32.9188 26.7343 32.822 27.0362C32.7251 27.338 32.4019 27.5042 32.1 27.4073C29.4024 26.5382 26.6135 26.0976 24.0024 26.6624C23.6919 26.7295 23.3858 26.5321 23.3188 26.2216C23.2517 25.9111 23.449 25.6049 23.7596 25.5379C26.5573 24.9327 29.5707 25.3828 32.4509 26.3143Z" fill="#364989"/>
<path fill-rule="evenodd" clip-rule="evenodd" d="M11.5162 4.40257C12.8838 1.85166 14.2512 0.576172 16.9862 0.576172C20.0057 0.576172 22.4563 2.86177 22.4563 5.67799C22.4563 10.7798 16.9862 15.8817 11.5162 20.9835C6.04617 15.8818 0.576172 10.7799 0.576172 5.67799C0.576172 2.86177 3.02675 0.576172 6.04617 0.576172C8.78124 0.576172 10.1487 1.85166 11.5162 4.40257Z" fill="#859BE4"/>
<path fill-rule="evenodd" clip-rule="evenodd" d="M11.5158 3.24834C12.8263 1.12196 14.339 0 16.9858 0C20.2279 0 23.0316 2.45848 23.0316 5.67757C23.0316 8.37879 21.6128 11.0436 19.4846 13.6902C17.4067 16.2743 14.6568 18.839 11.9071 21.4037C11.685 21.6104 11.3429 21.6075 11.1245 21.4037C8.37465 18.839 5.62484 16.2743 3.54697 13.6902C1.41882 11.0437 0 8.37887 0 5.67757C0 2.45848 2.8037 0 6.04575 0C8.69262 0 10.2053 1.12196 11.5158 3.24834ZM14.0821 1.99342C13.3024 2.57517 12.667 3.46913 12.0235 4.66893C11.8077 5.07579 11.2266 5.07741 11.0098 4.672C9.80268 2.41442 8.62721 1.15151 6.04575 1.15151C3.43527 1.15151 1.15151 3.09373 1.15151 5.67757C1.15151 8.07817 2.46777 10.5153 4.44208 12.9705C6.36956 15.3676 8.92753 17.782 11.5158 20.1975C14.104 17.782 16.6621 15.3675 18.5896 12.9705C20.5639 10.5152 21.8801 8.07817 21.8801 5.67757C21.8801 3.09366 19.5964 1.15151 16.9858 1.15151C15.7508 1.15151 14.8343 1.43218 14.0821 1.99342Z" fill="#364989"/>
<path fill-rule="evenodd" clip-rule="evenodd" d="M9.92387 5.98438H13.1069V9.29789H16.4205V12.4809H13.1069V15.7944H9.92387V12.4809H6.61035V9.29789H9.92387V5.98438Z" fill="white"/>
<path fill-rule="evenodd" clip-rule="evenodd" d="M9.92443 5.40869H13.1075C13.4255 5.40869 13.6833 5.66648 13.6833 5.98445V8.72221H16.421C16.739 8.72221 16.9968 8.97999 16.9968 9.29797V12.4811C16.9968 12.799 16.739 13.0568 16.421 13.0568H13.6832V15.7946C13.6832 16.1125 13.4254 16.3703 13.1074 16.3703H9.92435C9.60638 16.3703 9.3486 16.1125 9.3486 15.7946V13.0568H6.61091C6.29294 13.0568 6.03516 12.799 6.03516 12.4811V9.29797C6.03516 8.97999 6.29294 8.72221 6.61091 8.72221H9.34867V5.98445C9.34867 5.66648 9.60646 5.40869 9.92443 5.40869ZM12.5317 6.5602H10.5001V9.29797C10.5001 9.61594 10.2423 9.87372 9.92435 9.87372H7.18659V11.9053H9.92435C10.2423 11.9053 10.5001 12.1631 10.5001 12.4811V15.2188H12.5317V12.4811C12.5317 12.1631 12.7895 11.9053 13.1074 11.9053H15.8452V9.87372H13.1074C12.7895 9.87372 12.5317 9.61594 12.5317 9.29797V6.5602Z" fill="#364989"/>
</svg>
