<svg width="25" height="24" viewBox="0 0 25 24" fill="none" xmlns="http://www.w3.org/2000/svg">
<path d="M12.32 6.9C15.18 6.28 18.08 6.19 20.95 6.66C19.18 3.86 16.06 2 12.5 2C9.39 2 6.61 3.42 4.77 5.65C5.21 6.95 5.77 8.19 6.44 9.37C6.82 10.05 7.79 10.02 8.18 9.35C9.03 7.92 10.56 6.96 12.32 6.9Z" fill="#364989"/>
<path d="M8.22 14.72C6.22 12.58 4.66 10.14 3.59 7.44C2.09 10.4 2.1 14.03 3.93 17.08C5.53 19.75 8.17 21.41 11.03 21.84C11.92 20.79 12.7 19.67 13.37 18.5C13.76 17.82 13.23 17.01 12.45 17.01C10.78 17.02 9.17 16.2 8.22 14.72Z" fill="#364989"/>
<path d="M9.07001 12C9.07001 12.61 9.22001 13.18 9.53001 13.72C10.14 14.77 11.27 15.43 12.49 15.43C13.71 15.43 14.85 14.77 15.45 13.72C15.76 13.18 15.92 12.61 15.92 12C15.92 10.11 14.38 8.58 12.49 8.58C10.61 8.57 9.07001 10.11 9.07001 12Z" fill="#364989"/>
<path d="M21.84 8.42001C20.47 8.13001 19.08 7.97001 17.7 7.95001C16.91 7.94001 16.46 8.80001 16.85 9.49001C17.25 10.2 17.48 11.02 17.48 11.89C17.48 12.73 17.26 13.56 16.85 14.3C15.91 17.18 14.51 19.74 12.66 22C18.11 21.91 22.5 17.47 22.5 12C22.5 10.74 22.27 9.53001 21.84 8.42001Z" fill="#364989"/>
</svg>
