<svg width="48" height="25" viewBox="0 0 48 25" fill="none" xmlns="http://www.w3.org/2000/svg">
<line x1="0.5" y1="6" x2="0.499999" y2="19" stroke="#9CA3AF"/>
<path d="M11 13.9166L8.5 11.4166L9.08333 10.8333L11 12.75L12.9167 10.8333L13.5 11.4166L11 13.9166Z" fill="#1A1A1A"/>
<path d="M24.98 11.391C25.097 11.391 25.162 11.456 25.162 11.573V12.171C25.162 12.288 25.097 12.353 24.98 12.353H22.874V14.459C22.874 14.576 22.822 14.628 22.705 14.628H22.094C21.977 14.628 21.925 14.576 21.925 14.459V12.353H19.806C19.689 12.353 19.637 12.288 19.637 12.171V11.573C19.637 11.456 19.689 11.391 19.806 11.391H21.925V9.285C21.925 9.168 21.977 9.116 22.094 9.116H22.705C22.822 9.116 22.874 9.168 22.874 9.285V11.391H24.98ZM27.7592 10.962C27.7592 11.625 28.2922 12.171 28.9552 12.171H29.4752C30.4242 12.171 31.2042 11.391 31.2042 10.442V9.805C31.2042 8.856 30.4242 8.076 29.4752 8.076C28.5262 8.076 27.7592 8.843 27.7592 9.805V10.962ZM29.4752 15.551C30.4242 15.551 31.2042 14.758 31.2042 13.809V12.496C30.7102 12.925 30.1252 13.133 29.4752 13.133H28.9552C28.3572 13.133 27.8632 12.925 27.4342 12.496C27.0052 12.067 26.7972 11.56 26.7972 10.962V9.805C26.7972 9.064 27.0572 8.427 27.5772 7.907C28.0972 7.387 28.7342 7.114 29.4752 7.114C30.2162 7.114 30.8532 7.387 31.3732 7.907C31.8932 8.427 32.1662 9.064 32.1662 9.805V13.809C32.1662 14.55 31.8932 15.187 31.3732 15.707C30.8532 16.227 30.2162 16.5 29.4752 16.5C28.7732 16.5 28.1622 16.253 27.6422 15.772C27.1222 15.291 26.8492 14.706 26.7972 14.004V13.991C26.7972 13.9 26.8752 13.809 26.9662 13.809H27.5772C27.6812 13.809 27.7462 13.874 27.7592 13.978C27.8372 14.836 28.5652 15.551 29.4752 15.551ZM36.4957 15.551C37.4447 15.551 38.2247 14.758 38.2247 13.809V12.652C38.2247 11.989 37.6787 11.443 37.0157 11.443H36.4957C35.5467 11.443 34.7667 12.223 34.7667 13.172V13.809C34.7667 14.758 35.5467 15.551 36.4957 15.551ZM36.4957 8.076C35.5467 8.076 34.7667 8.856 34.7667 9.805V11.118C35.2737 10.689 35.8457 10.494 36.4957 10.494H37.0157C37.6137 10.494 38.1207 10.689 38.5497 11.118C38.9787 11.547 39.1737 12.054 39.1737 12.652V13.809C39.1737 14.55 38.9137 15.187 38.3937 15.707C37.8737 16.227 37.2367 16.5 36.4957 16.5C35.7547 16.5 35.1177 16.227 34.5977 15.707C34.0777 15.187 33.8177 14.55 33.8177 13.809V9.805C33.8177 9.064 34.0777 8.427 34.5977 7.907C35.1177 7.387 35.7547 7.114 36.4957 7.114C37.1977 7.114 37.8217 7.361 38.3287 7.842C38.8487 8.323 39.1217 8.908 39.1737 9.61C39.1737 9.714 39.1087 9.805 39.0047 9.805H38.3937C38.2897 9.805 38.2377 9.753 38.2247 9.649C38.1467 8.791 37.4187 8.076 36.4957 8.076ZM45.7135 7.114C45.9475 7.114 46.1945 7.296 46.1945 7.569C46.1945 7.634 46.1815 7.712 46.1555 7.777L42.6715 16.396C42.6455 16.474 42.5935 16.5 42.5155 16.5H41.8525C41.7615 16.5 41.6835 16.435 41.6835 16.331C41.6835 16.305 41.6835 16.279 41.6965 16.253L45.0115 8.076H40.9945C40.8775 8.076 40.8255 8.011 40.8255 7.894V7.296C40.8255 7.179 40.8775 7.114 40.9945 7.114H45.7135Z" fill="#9CA3AF"/>
</svg>
