<svg width="37" height="36" viewBox="0 0 37 36" fill="none" xmlns="http://www.w3.org/2000/svg">
<g clip-path="url(#clip0_819_7594)">
<path d="M26.8627 1.26196C24.6792 1.26196 21.9151 2.45684 18.499 2.45684C15.0829 2.45684 12.3189 1.26196 10.1367 1.26196C6.36993 1.26196 0.524896 3.62379 1.86926 9.75833C2.87331 14.3331 7.50647 16.7477 7.50647 20.3747C7.50647 24.1609 5.89453 24.3541 5.71788 28.9238C5.53344 33.6609 8.19232 34.7358 9.12883 34.7358C10.0653 34.7358 12.5891 35.0408 13.7672 29.4396C15.1129 23.0311 18.499 23.3143 18.499 23.3143C18.499 23.3143 21.8866 23.0342 23.2323 29.4396C24.4104 35.0408 26.9354 34.7358 27.8707 34.7358C28.8059 34.7358 31.466 33.6609 31.2815 28.9238C31.1036 24.3541 29.4929 24.1609 29.4929 20.3747C29.4929 16.7477 34.1261 14.3331 35.1302 9.75833C36.4758 3.62379 30.6269 1.26196 26.8627 1.26196Z" stroke="#364989" stroke-width="1.5" stroke-linecap="round" stroke-linejoin="round"/>
<path d="M10.9994 14.603C10.7123 14.2206 10.4214 13.8505 10.1356 13.4888C9.00818 12.0593 8.03529 10.8251 7.71186 9.35427C7.4313 8.07568 7.62746 7.10719 8.2951 6.47461" stroke="#364989" stroke-width="1.5" stroke-linecap="round" stroke-linejoin="round"/>
</g>
<defs>
<clipPath id="clip0_819_7594">
<rect width="35.0534" height="34.5902" fill="white" transform="translate(0.973145 0.704834)"/>
</clipPath>
</defs>
</svg>
