<?xml version="1.0" encoding="UTF-8"?>
<svg width="1200pt" height="1200pt" version="1.1" viewBox="0 0 1200 1200" xmlns="http://www.w3.org/2000/svg">
 <g fill="#00449e">
  <path d="m1109.3 453.85c-5.6055-3.625-11.918-5.375-18.172-5.375-9.9375 0-19.734 4.418-26.309 12.738l-9.7109 12.293c-7.1133 9.0039-17.953 14.258-29.43 14.258-28.035 0-54.617 12.469-72.539 34.027l-26.266 31.594 0.058594 0.046875-99.352 109.85c-1.6953 1.8867-4.0273 2.9766-6.5625 3.082-2.7539 0.089843-4.9609-0.80078-6.8008-2.5391l-125.84-118.35c-38.406-36.117-88.586-56.008-141.3-56.008h-19.684c-0.95312 0-1.8867 0.18359-2.7891 0.46875-0.15234 0.046875-0.29297 0.12891-0.44531 0.18359-0.5 0.18359-1.0078 0.34375-1.4727 0.60938l-11.656 6.7617c-43.184 25.055-96.883 25.133-140.12 0.21484l-12.141-6.9883c-0.21094-0.12109-0.47266-0.125-0.69531-0.22266-0.82813-0.39844-1.7031-0.69531-2.6211-0.84766-0.21094-0.03125-0.41797-0.066406-0.63281-0.082032-0.24609-0.019531-0.48438-0.097656-0.73438-0.097656h-15.105c-48.137 0-95.598 16.25-133.63 45.754-58.957 45.73-90.184 117.41-83.52 191.72l32.043 362.14c1.3633 15.082 13.805 26.457 28.949 26.457h446.95c7.9297 0 15.609-3.3008 21.074-9.0508 5.5391-5.8359 8.3594-13.48 7.9453-21.496l-5.7695-116.07c-2.793-53.82 3.1602-104.4 17.695-150.34 0.91406-2.8906 1.7109-5.8203 2.4961-8.7539 0.011719-0.058594 0.046875-0.10156 0.058593-0.16016 0.007813-0.035157 0.011719-0.070313 0.015626-0.10547 3.1602-11.871 5.3203-24.07 6.3633-36.516l80.668 61.367c17.23 13.109 38.652 20.332 60.305 20.332 32.93 0 63.684-16.242 82.27-43.441l128.63-188.39 86.828-121.46c11.117-15.535 6.9961-37.211-9.0508-47.594zm-83.617 52.664c17.316 0 33.406-7.7969 44.145-21.387l9.707-12.293c2.8164-3.5625 7.043-5.6094 11.594-5.6094 2.832 0 5.5938 0.81641 7.9883 2.3672 3.418 2.2109 5.7148 5.6289 6.4766 9.625s-0.125 8.0195-2.4922 11.332l-80.25 112.27-68.844-52.73 13.559-16.309c14.402-17.324 35.586-27.262 58.117-27.262zm-790.51 308.54c-10.117-37.305-14.281-86.102-12.387-145.04 0.17578-5.1719-3.8906-9.5039-9.0625-9.6719-0.10156-0.003906-0.20312-0.003906-0.3125-0.003906-5.0352 0-9.1992 4-9.3555 9.0742-1.9688 60.801 2.418 111.45 13.027 150.55 12.305 45.391 17.414 90.207 15.18 133.2l-7.2148 143.62h-42.223c-5.375 0-9.7852-4.0391-10.273-9.3789l-32.043-362.13c-6.0898-67.934 22.449-133.44 76.348-175.24 28.289-21.953 62.32-35.707 97.727-40.125-10.043 8.1367-20.152 19.156-27.441 33.957-15.227 30.867-13.973 68.988 3.7266 113.3 0.13281 0.33594 0.36719 0.59375 0.53516 0.90625-11.906 9.4492-19.574 24.008-19.574 40.352 0 28.434 23.137 51.562 51.562 51.562s51.562-23.129 51.562-51.562-23.137-51.562-51.562-51.562c-5.3867 0-10.582 0.83984-15.465 2.3789-15.23-38.637-16.625-71.242-4.0703-96.891 13.367-27.316 39.375-39.496 48.988-43.199l71.465 115.58c1.9141 3.0977 4.4805 5.4219 7.3672 6.9766v465.07h-187.86l7.168-142.67c2.3281-44.969-2.9922-91.758-15.816-139.07zm88.219-149.43c18.09 0 32.812 14.723 32.812 32.812s-14.723 32.812-32.812 32.812-32.812-14.723-32.812-32.812 14.723-32.812 32.812-32.812zm564.02 135.11c-15.078 22.082-40.047 35.266-66.777 35.266-17.578 0-34.965-5.8633-48.953-16.508l-91.402-69.531c2.9102-53.074-5.2109-81.383-5.6719-82.926-1.4727-4.9648-6.7109-7.7695-11.629-6.3086-4.9609 1.4609-7.793 6.668-6.3438 11.633 0.13672 0.46094 13.176 46.871-1.582 132.52-0.71875 2.6875-1.3633 5.4023-2.1953 8.0469-15.227 48.09-21.461 100.9-18.559 156.95l5.7695 116.07c0.15625 2.8516-0.85156 5.5625-2.8125 7.6367-1.9688 2.0703-4.625 3.207-7.4805 3.207l-179.35 0.003907v-465.06c2.8906-1.5547 5.457-3.8828 7.375-6.9844l70.723-114.38c17.086 10.965 67.141 51.266 40.07 134.06-0.44531 1.3594-0.5 2.7305-0.33203 4.0625-3.4805-0.46484-7.0039-0.78906-10.609-0.78906-43.973 0-79.75 35.773-79.75 79.75v42.18c0 0.95312 0.27734 1.8203 0.54297 2.6875 1.7617 13.832 13.449 24.562 27.762 24.562 15.531 0 28.125-12.594 28.125-28.125s-12.594-28.125-28.125-28.125c-3.3711 0-6.5625 0.69141-9.5586 1.7773v-14.957c0-33.637 27.363-61 61-61 33.637 0 61 27.363 61 61v14.883c-2.9258-1.0312-6.0312-1.7031-9.3164-1.7031-15.531 0-28.125 12.594-28.125 28.125s12.594 28.125 28.125 28.125c15.121 0 27.359-11.961 28.004-26.922 0.003906-0.11719 0.066406-0.21094 0.066406-0.32812v-0.32812c0.003907-0.1875 0.054688-0.35938 0.054688-0.54688s-0.050781-0.35938-0.054688-0.54297v-40.758c0-34.301-21.809-63.523-52.25-74.762 0.51563-0.73828 0.96094-1.5352 1.2539-2.4297 23.98-73.336-6.1836-118.74-30.367-141.61 44.609 2.1172 86.777 19.723 119.49 50.496l125.83 118.34c5.5469 5.2148 12.801 7.918 20.406 7.6133 7.6172-0.30859 14.621-3.5898 19.719-9.2344l100.43-111.04 70.129 53.387z"/>
  <path d="m258.58 432.36h66.746c30.18 28.305 70.656 45.766 115.3 45.766s85.117-17.461 115.3-45.766h61.461c13.266 0 22.152-13.355 17.367-25.727-20.094-51.969-16.469-95.215-16.469-95.215 6-103.43-76.258-190.6-179.86-190.6-103.61 0-185.86 87.168-179.86 190.6 0 0 1.8789 42.73-17.488 95.602-4.5078 12.285 4.4219 25.34 17.508 25.34zm182.04 27.016c-31.832 0-61.32-10.039-85.629-27.016-31.16-21.762-53.73-54.988-61.438-93.562 120.13-5.9297 165.81-122.68 165.81-122.68 45.418 58.547 112.97 67.766 129.13 69.156 1.2812 7.8672 2.1211 15.879 2.1211 24.098 0 50.879-25.52 95.852-64.371 122.98-24.309 16.977-53.797 27.016-85.629 27.016z"/>
  <path d="m759.38 375h56.25v56.25c0 10.355 8.3945 18.75 18.75 18.75h56.25c10.355 0 18.75-8.3945 18.75-18.75v-56.25h56.25c10.355 0 18.75-8.3945 18.75-18.75v-56.25c0-10.355-8.3945-18.75-18.75-18.75h-56.25v-56.25c0-10.355-8.3945-18.75-18.75-18.75h-56.25c-10.355 0-18.75 8.3945-18.75 18.75v56.25h-56.25c-10.355 0-18.75 8.3945-18.75 18.75v56.25c0 10.355 8.3945 18.75 18.75 18.75z"/>
 </g>
</svg>
