<svg width="10" height="10" viewBox="0 0 10 10" fill="none" xmlns="http://www.w3.org/2000/svg">
<mask id="path-1-inside-1_103_5494" fill="white">
<path d="M5.3125 6.6333H5.58333C5.85417 6.6333 6.07917 6.39163 6.07917 6.09997C6.07917 5.73747 5.95 5.66663 5.7375 5.59163L5.31667 5.4458V6.6333H5.3125Z"/>
</mask>
<path d="M5.3125 6.6333H5.58333C5.85417 6.6333 6.07917 6.39163 6.07917 6.09997C6.07917 5.73747 5.95 5.66663 5.7375 5.59163L5.31667 5.4458V6.6333H5.3125Z" fill="white"/>
<path d="M5.7375 5.59163L6.07033 4.64863L6.06493 4.64676L5.7375 5.59163ZM5.31667 5.4458L5.6441 4.50093L4.31667 4.04092V5.4458H5.31667ZM5.31667 6.6333V7.6333H6.31667V6.6333H5.31667ZM5.3125 6.6333V7.6333H5.58333V6.6333V5.6333H5.3125V6.6333ZM5.58333 6.6333V7.6333C6.47345 7.6333 7.07917 6.87445 7.07917 6.09997H6.07917H5.07917C5.07917 5.90882 5.23488 5.6333 5.58333 5.6333V6.6333ZM6.07917 6.09997H7.07917C7.07917 5.8228 7.0342 5.4396 6.76396 5.10719C6.509 4.79356 6.16898 4.68346 6.07032 4.64864L5.7375 5.59163L5.40468 6.53462C5.45002 6.55063 5.43459 6.54753 5.40254 6.53009C5.36093 6.50744 5.28449 6.45787 5.21208 6.36879C5.05955 6.18117 5.07917 6.01463 5.07917 6.09997H6.07917ZM5.7375 5.59163L6.06493 4.64676L5.6441 4.50093L5.31667 5.4458L4.98923 6.39068L5.41007 6.53651L5.7375 5.59163ZM5.31667 5.4458H4.31667V6.6333H5.31667H6.31667V5.4458H5.31667ZM5.31667 6.6333V5.6333H5.3125V6.6333V7.6333H5.31667V6.6333Z" fill="white" mask="url(#path-1-inside-1_103_5494)"/>
<path d="M4.98926 1.2915C7.01376 1.28793 8.65966 2.92397 8.66699 4.94775C8.67418 6.97056 7.03614 8.61699 5.01172 8.62451C2.98879 8.63184 1.34152 6.99374 1.33398 4.96924C1.32666 2.94643 2.96492 1.29923 4.98926 1.2915ZM5.00098 1.68701C4.63971 1.68701 4.33044 1.92584 4.22559 2.25342C3.41178 2.35097 2.79688 3.06122 2.79688 3.8999C2.79689 4.37932 2.94127 4.75006 3.18359 5.021C3.24431 5.08883 3.30879 5.14703 3.37402 5.19775C3.04276 5.30038 2.80078 5.6112 2.80078 5.9751C2.8009 6.83429 3.40183 7.57272 4.2207 7.72705C4.31958 8.06432 4.63279 8.31201 5.00098 8.31201C5.36219 8.31188 5.66965 8.0732 5.77441 7.74561C6.58877 7.64865 7.20495 6.9391 7.20508 6.1001C7.20508 5.62071 7.06065 5.24994 6.81836 4.979C6.75703 4.91044 6.69189 4.8514 6.62598 4.80029C6.95762 4.69791 7.20017 4.38906 7.2002 4.0249C7.2002 3.16511 6.59898 2.42572 5.7793 2.27197C5.6876 1.96065 5.41451 1.72564 5.08301 1.69189L5.00098 1.68701Z" fill="white" stroke="white"/>
<mask id="path-4-inside-2_103_5494" fill="white">
<path d="M3.92578 3.9042C3.92578 4.2667 4.05495 4.33753 4.26745 4.41253L4.68828 4.55837V3.3667H4.41745C4.14661 3.3667 3.92578 3.60837 3.92578 3.9042Z"/>
</mask>
<path d="M3.92578 3.9042C3.92578 4.2667 4.05495 4.33753 4.26745 4.41253L4.68828 4.55837V3.3667H4.41745C4.14661 3.3667 3.92578 3.60837 3.92578 3.9042Z" fill="white"/>
<path d="M4.26745 4.41253L3.93462 5.35554L3.94002 5.35741L4.26745 4.41253ZM4.68828 4.55837L4.36085 5.50324L5.68828 5.96324V4.55837H4.68828ZM4.68828 3.3667H5.68828V2.3667H4.68828V3.3667ZM3.92578 3.9042H2.92578C2.92578 4.18136 2.97075 4.56456 3.24098 4.89698C3.49595 5.21061 3.83597 5.3207 3.93463 5.35552L4.26745 4.41253L4.60027 3.46954C4.55492 3.45354 4.57036 3.45664 4.60241 3.47408C4.64402 3.49672 4.72046 3.5463 4.79287 3.63538C4.9454 3.823 4.92578 3.98954 4.92578 3.9042H3.92578ZM4.26745 4.41253L3.94002 5.35741L4.36085 5.50324L4.68828 4.55837L5.01571 3.61349L4.59488 3.46766L4.26745 4.41253ZM4.68828 4.55837H5.68828V3.3667H4.68828H3.68828V4.55837H4.68828ZM4.68828 3.3667V2.3667H4.41745V3.3667V4.3667H4.68828V3.3667ZM4.41745 3.3667V2.3667C3.51202 2.3667 2.92578 3.14215 2.92578 3.9042H3.92578H4.92578C4.92578 4.07458 4.78121 4.3667 4.41745 4.3667V3.3667Z" fill="white" mask="url(#path-4-inside-2_103_5494)"/>
</svg>
