<svg width="39" height="39" viewBox="0 0 39 39" fill="none" xmlns="http://www.w3.org/2000/svg">
<g clip-path="url(#clip0_785_4355)">
<path d="M25.0397 33.796C21.9806 33.796 19.4883 31.3036 19.4883 28.2446V15.015C19.4883 9.60379 23.888 5.2041 29.2992 5.2041C32.3583 5.2041 35.1919 6.59348 37.0688 9.01879C39.6342 12.3338 39.6525 17.0443 37.1236 20.4689C36.1973 21.7243 34.9969 22.6871 33.5588 23.3208C31.755 24.1191 30.5911 25.9289 30.5911 27.9338V28.2446C30.5911 31.3097 28.0988 33.796 25.0397 33.796ZM29.2992 6.38629C24.54 6.38629 20.6705 10.2558 20.6705 15.015V28.2507C20.6705 30.6577 22.6327 32.6199 25.0397 32.6199C27.4467 32.6199 29.4089 30.6577 29.4089 28.2507V27.9399C29.4089 25.4719 30.847 23.2355 33.0773 22.2483C34.3266 21.6938 35.3625 20.865 36.1669 19.7743C38.385 16.77 38.3667 12.6446 36.1303 9.74395C34.4789 7.60504 31.9927 6.38629 29.2992 6.38629Z" fill="#364989"/>
<path d="M24.5699 27.9459C24.4054 27.9459 24.2348 27.9276 24.0703 27.8849C24.0276 27.8788 23.9789 27.8666 23.9362 27.8545C23.0465 27.5863 22.4189 26.7393 22.4189 25.8009C22.4189 25.5632 22.4615 25.3195 22.5407 25.0879C22.8942 24.1129 22.9795 23.1684 22.7967 22.2787C22.7053 21.8216 22.8576 21.3402 23.1928 21.0295C23.406 20.8162 23.7107 20.6821 24.0398 20.6638L26.9831 20.5115C27.0745 20.5054 27.172 20.4566 27.2329 20.3835C27.2817 20.3287 27.2999 20.2677 27.2878 20.2007C27.2695 20.0727 27.1781 19.9752 27.0562 19.957C25.8923 19.7802 23.7656 19.2135 22.6139 17.361C21.7059 15.9046 21.6206 13.9912 22.364 11.6695C22.6992 10.6091 23.4365 9.70727 24.5517 8.9882C26.6479 7.83648 29.1281 7.83039 31.2182 8.94555C33.3632 10.0912 34.7709 12.224 34.9842 14.6432C35.1975 17.0868 34.9354 18.9698 34.2042 20.2555C34.0884 20.4627 33.8629 20.5785 33.6253 20.548C33.3876 20.5237 33.1926 20.3591 33.1256 20.1337C31.8825 15.9899 30.1518 13.5585 27.9824 12.9187C27.5193 12.7785 26.9831 12.8334 26.5931 13.0466C26.3981 13.1502 26.1543 13.3452 26.0568 13.6865C25.9228 14.1496 25.9471 14.503 26.136 14.7651C26.4651 15.2343 27.2573 15.3866 27.5071 15.4049C29.3474 15.4598 30.9196 16.5871 31.5778 18.3482C32.2298 20.0849 31.7971 21.9435 30.4565 23.1988C29.6095 23.991 28.537 24.6309 27.2634 25.1062L26.52 26.7088C26.1482 27.4766 25.3865 27.9459 24.5699 27.9459ZM24.2653 26.721C24.2835 26.721 24.3018 26.7271 24.3262 26.7332C24.771 26.849 25.2403 26.6296 25.4414 26.203L26.2884 24.381C26.3554 24.2348 26.4773 24.1251 26.6296 24.0702C27.8484 23.6376 28.866 23.0526 29.646 22.3274C30.8282 21.2245 30.8465 19.762 30.4687 18.7565C30.0848 17.7388 29.0915 16.6298 27.4401 16.5749C27.2573 16.5627 25.8679 16.4348 25.161 15.4293C24.8868 15.0393 24.6248 14.3629 24.9173 13.3452C25.0818 12.7724 25.4657 12.3032 26.0203 11.9985C26.6906 11.6329 27.5498 11.5476 28.3176 11.773C30.5662 12.4373 32.37 14.5762 33.7045 18.1349C33.8873 17.2026 33.9178 16.057 33.802 14.7346C33.6253 12.7176 32.4492 10.9382 30.6576 9.97539C28.8965 9.03086 26.8917 9.03695 25.1549 9.98758C24.3018 10.5421 23.7473 11.2124 23.4914 12.0168C22.8637 13.9912 22.9064 15.5755 23.6193 16.7273C24.5517 18.2263 26.4529 18.659 27.2268 18.7748C27.8606 18.8662 28.3664 19.378 28.4578 20.024C28.5126 20.414 28.4029 20.804 28.147 21.1209C27.8789 21.4499 27.4767 21.6571 27.044 21.6815L24.1007 21.8338C24.052 21.8338 24.0215 21.8582 24.0093 21.8704C23.9667 21.913 23.9362 21.9679 23.9484 22.041C24.1739 23.1501 24.0703 24.3079 23.6498 25.4779C23.6132 25.5815 23.595 25.6912 23.595 25.8009C23.595 26.2213 23.8692 26.593 24.2653 26.721Z" fill="#858585"/>
<path d="M8.92734 21.1208C8.72625 21.1208 8.53734 21.0172 8.42766 20.8466L7.00781 18.6163H5.58797C5.38078 18.6163 5.18578 18.5066 5.08219 18.3238L4.23516 16.8857L3.23578 18.3543C3.12609 18.5188 2.94328 18.6163 2.74828 18.6163H0.591094C0.262031 18.6163 0 18.3543 0 18.0252C0 17.6961 0.262031 17.4341 0.591094 17.4341H2.43141L3.77812 15.4536C3.89391 15.2891 4.08891 15.1916 4.28391 15.1916C4.485 15.1977 4.67391 15.3074 4.77141 15.4841L5.92313 17.4341H7.33078C7.53187 17.4341 7.72078 17.5377 7.83047 17.7083L8.91516 19.4146L9.97547 17.6839C10.0852 17.5072 10.2741 17.4036 10.4813 17.4036H12.0169L13.1747 15.1794C13.2722 14.9905 13.4733 14.8686 13.6866 14.8625C13.8998 14.8564 14.1009 14.9722 14.2106 15.1611L15.5208 17.4402H17.0747C17.4037 17.4402 17.6658 17.7022 17.6658 18.0313C17.6658 18.3603 17.4037 18.6224 17.0747 18.6224H15.1795C14.9662 18.6224 14.7712 18.5066 14.6677 18.3238L13.7231 16.6785L12.8944 18.2628C12.7908 18.4578 12.5897 18.5797 12.3703 18.5797H10.8042L9.42094 20.8405C9.32344 21.0111 9.13453 21.1208 8.92734 21.1208Z" fill="#858585"/>
</g>
<defs>
<clipPath id="clip0_785_4355">
<rect width="39" height="39" fill="white"/>
</clipPath>
</defs>
</svg>
