<svg width="35" height="35" viewBox="0 0 35 35" fill="none" xmlns="http://www.w3.org/2000/svg">
<path d="M32.2656 19.6875C32.2656 19.6875 25.6539 28.9844 17.5 28.9844C9.34609 28.9844 2.73438 19.6875 2.73438 19.6875C2.73438 19.6875 9.34609 10.3906 17.5 10.3906C25.6539 10.3906 32.2656 19.6875 32.2656 19.6875Z" stroke="#364989" stroke-width="2" stroke-linecap="round" stroke-linejoin="round"/>
<path d="M17.5 28.9844C22.6345 28.9844 26.7969 24.822 26.7969 19.6875C26.7969 14.553 22.6345 10.3906 17.5 10.3906C12.3655 10.3906 8.20312 14.553 8.20312 19.6875C8.20312 24.822 12.3655 28.9844 17.5 28.9844Z" stroke="#364989" stroke-width="2" stroke-linecap="round" stroke-linejoin="round"/>
<path d="M17.5002 15.7227H17.1885C17.6039 16.2172 17.8189 16.8496 17.7909 17.4948C17.7629 18.1401 17.494 18.7515 17.0373 19.2082C16.5806 19.6649 15.9692 19.9338 15.324 19.9618C14.6787 19.9898 14.0463 19.7748 13.5518 19.3594C13.5518 19.4633 13.5518 19.5672 13.5518 19.6711C13.5485 20.4567 13.7787 21.2255 14.2131 21.88C14.6476 22.5346 15.2666 23.0453 15.9918 23.3474C16.7169 23.6495 17.5155 23.7294 18.2861 23.577C19.0567 23.4245 19.7647 23.0465 20.3202 22.4911C20.8756 21.9356 21.2536 21.2276 21.4061 20.457C21.5585 19.6864 21.4786 18.8878 21.1765 18.1627C20.8744 17.4375 20.3637 16.8185 19.7091 16.384C19.0546 15.9496 18.2858 15.7194 17.5002 15.7227Z" stroke="#364989" stroke-width="2" stroke-linecap="round" stroke-linejoin="round"/>
<path d="M17.5 4.92188V7.65625" stroke="#364989" stroke-width="2" stroke-linecap="round" stroke-linejoin="round"/>
<path d="M24.0129 6.1084L23.0176 8.65684" stroke="#364989" stroke-width="2" stroke-linecap="round" stroke-linejoin="round"/>
<path d="M10.9863 6.1084L11.9816 8.65684" stroke="#364989" stroke-width="2" stroke-linecap="round" stroke-linejoin="round"/>
</svg>
