<svg width="32" height="32" viewBox="0 0 32 32" fill="none" xmlns="http://www.w3.org/2000/svg">
<path d="M23.752 31.75C24.0285 31.75 24.252 31.5265 24.252 31.25V26.251C24.252 25.3005 23.8695 24.438 23.252 23.806V9.75C23.252 7.609 22.5315 5.637 21.3315 4.047C21.3305 4.0445 21.3305 4.0415 21.3295 4.039C21.2985 3.972 21.2535 3.9175 21.201 3.8725C19.4595 1.6705 16.771 0.25 13.752 0.25C8.51345 0.25 4.25195 4.5115 4.25195 9.75V23.8055C3.63445 24.437 3.25195 25.2995 3.25195 26.251L3.25245 31.25C3.25245 31.5265 3.47645 31.75 3.75245 31.75C4.02895 31.75 4.25245 31.526 4.25245 31.25L4.25195 26.251C4.25195 24.872 5.37395 23.75 6.75295 23.75L8.63495 23.7505L8.52845 23.8035C8.51445 23.811 8.50545 23.8235 8.49245 23.832C8.47945 23.84 8.46445 23.842 8.45195 23.851C8.43695 23.862 8.42895 23.8795 8.41545 23.892C8.39045 23.9155 8.36845 23.939 8.34945 23.966C8.33095 23.9925 8.31645 24.0185 8.30295 24.048C8.28945 24.0775 8.27895 24.106 8.27145 24.138C8.26395 24.169 8.26095 24.1985 8.25995 24.2305C8.25845 24.2625 8.25945 24.2935 8.26495 24.326C8.26995 24.3585 8.27895 24.3895 8.29045 24.421C8.29745 24.4385 8.29645 24.457 8.30495 24.474C8.31445 24.4925 8.32845 24.507 8.33945 24.524C8.34545 24.533 8.34595 24.5425 8.35195 24.551L9.59145 26.203L8.89795 26.8965C8.88245 26.912 8.87545 26.9325 8.86245 26.95C8.84195 26.977 8.82195 27.0025 8.80745 27.033C8.79345 27.062 8.78495 27.0905 8.77645 27.1215C8.76795 27.153 8.76045 27.183 8.75845 27.2155C8.75595 27.247 8.75945 27.2775 8.76295 27.3095C8.76695 27.341 8.77145 27.3715 8.78145 27.403C8.79195 27.4345 8.80745 27.4635 8.82445 27.4935C8.83495 27.512 8.83845 27.533 8.85195 27.5505L11.852 31.5505C11.95 31.682 12.1 31.7505 12.2525 31.7505C12.357 31.7505 12.462 31.718 12.552 31.6505C12.6665 31.565 12.731 31.4395 12.747 31.308L12.7755 31.3995C12.8425 31.614 13.0395 31.7505 13.2525 31.7505C13.302 31.7505 13.352 31.743 13.4015 31.7275C13.665 31.6455 13.812 31.3645 13.7295 31.1015L11.917 25.3015C12.4095 25.5705 13.0155 25.752 13.7525 25.752C14.4895 25.752 15.0955 25.5705 15.588 25.3015L13.7755 31.1015C13.693 31.3645 13.84 31.6455 14.1035 31.7275C14.153 31.743 14.203 31.7505 14.2525 31.7505C14.4655 31.7505 14.6625 31.614 14.7295 31.3995L14.758 31.308C14.7735 31.4395 14.8385 31.565 14.953 31.6505C15.043 31.718 15.148 31.7505 15.2525 31.7505C15.405 31.7505 15.5545 31.6815 15.653 31.5505L18.653 27.5505C18.666 27.533 18.6695 27.512 18.6805 27.4935C18.6975 27.4635 18.713 27.435 18.7235 27.403C18.734 27.3715 18.738 27.3415 18.742 27.3095C18.7455 27.278 18.749 27.2475 18.7465 27.2155C18.7445 27.1835 18.7365 27.153 18.7285 27.1215C18.72 27.0905 18.712 27.062 18.6975 27.033C18.683 27.0025 18.663 26.977 18.6425 26.95C18.6295 26.9325 18.6225 26.912 18.607 26.8965L17.9135 26.203L19.153 24.551C19.1595 24.5425 19.16 24.533 19.1655 24.5245C19.1765 24.5075 19.191 24.493 19.2 24.474C19.209 24.457 19.208 24.4385 19.2145 24.421C19.2255 24.3895 19.235 24.3585 19.24 24.326C19.2455 24.2935 19.2465 24.2625 19.245 24.2305C19.244 24.199 19.2405 24.169 19.2335 24.138C19.226 24.1065 19.2155 24.0775 19.202 24.048C19.1885 24.0185 19.174 23.9925 19.1555 23.966C19.1365 23.9385 19.1145 23.915 19.0895 23.892C19.076 23.8795 19.068 23.862 19.053 23.851C19.0405 23.8415 19.025 23.84 19.012 23.8315C18.999 23.823 18.9905 23.8105 18.9765 23.8035L18.87 23.7505L20.753 23.751C22.1315 23.751 23.253 24.8725 23.253 26.251V31.25C23.252 31.5265 23.4755 31.75 23.752 31.75ZM20.752 22.751L17.252 22.75V20.9335C19.9115 19.632 21.752 16.9055 21.752 13.751V11.747L22.252 12.0375V23.0935C21.7965 22.8765 21.289 22.751 20.752 22.751ZM10.252 22.751L6.75295 22.75C6.21545 22.75 5.70745 22.8755 5.25195 23.093V12.069L5.75195 11.836V13.751C5.75195 16.906 7.59245 19.632 10.252 20.9335V22.751ZM6.75195 13.751V11.371L14.726 7.662L20.752 11.1655V13.751C20.752 17.611 17.612 20.751 13.752 20.751C9.89195 20.751 6.75195 17.611 6.75195 13.751ZM22.252 10.881L15.8315 7.148L20.7075 4.88C21.6775 6.261 22.252 7.938 22.252 9.75V10.881ZM13.752 1.25C16.258 1.25 18.5065 2.346 20.0635 4.0765L5.25195 10.9665V9.75C5.25195 5.063 9.06495 1.25 13.752 1.25ZM9.91195 27.297L10.6055 26.6035C10.621 26.588 10.6275 26.568 10.64 26.551C10.6615 26.5235 10.6815 26.4975 10.696 26.467C10.71 26.438 10.7185 26.409 10.727 26.378C10.7355 26.347 10.7425 26.3175 10.745 26.285C10.7475 26.2525 10.744 26.222 10.74 26.19C10.736 26.1585 10.732 26.1285 10.722 26.098C10.712 26.0665 10.696 26.0375 10.6795 26.008C10.669 25.989 10.6655 25.9675 10.6515 25.9495L9.51145 24.43L10.45 23.961L12.6225 30.911L9.91195 27.297ZM11.252 23.1575V21.345C12.0395 21.6055 12.8785 21.751 13.752 21.751C14.6255 21.751 15.4645 21.6055 16.252 21.345V23.157C16.132 23.4585 15.514 24.7515 13.752 24.7515C11.986 24.752 11.3695 23.453 11.252 23.1575ZM14.8815 30.911L17.054 23.961L17.9925 24.43L16.8525 25.9495C16.839 25.9675 16.8355 25.989 16.8245 26.008C16.808 26.0375 16.792 26.066 16.782 26.098C16.7715 26.1285 16.768 26.1585 16.764 26.19C16.76 26.222 16.7565 26.253 16.759 26.285C16.7615 26.317 16.769 26.347 16.777 26.378C16.785 26.409 16.7935 26.438 16.808 26.467C16.8225 26.4975 16.8425 26.5235 16.864 26.551C16.8765 26.568 16.883 26.588 16.8985 26.6035L17.592 27.297L14.8815 30.911ZM26.249 30.501L26.2495 30.503C26.2515 31.1905 26.811 31.749 27.499 31.749C28.1885 31.749 28.749 31.1885 28.749 30.499V18.25C28.749 17.9735 28.5255 17.75 28.249 17.75C26.5955 17.75 25.251 19.094 25.249 20.7465C25.249 20.748 25.2485 20.749 25.2485 20.75V24.751C25.2485 25.0275 25.472 25.251 25.7485 25.251H26.249V30.501ZM27.749 18.821V24.251H26.2485V20.7525C26.2485 20.7515 26.249 20.751 26.249 20.75C26.249 19.821 26.8885 19.0445 27.749 18.821ZM27.749 25.251V30.499C27.749 30.6365 27.6365 30.749 27.499 30.749C27.3615 30.749 27.249 30.6365 27.249 30.499V25.251H27.749Z" fill="#364989"/>
</svg>
