<svg width="42" height="35" viewBox="0 0 42 35" fill="none" xmlns="http://www.w3.org/2000/svg">
<g clip-path="url(#clip0_105_6722)">
<path d="M6.7388 33.7945C5.69126 34.0591 4.5905 33.9233 3.90901 33.4149C2.75503 32.5534 1.67115 31.2111 1.02601 29.2109C0.140734 26.4712 1.2428 20.9778 6.41818 19.6643C10.3124 18.6786 11.9012 21.0606 15.8175 20.068C19.7337 19.0754 21.8444 16.829 21.1395 14.6552C19.8908 10.7893 12.7021 9.77369 9.40893 5.43053C8.54052 4.28033 9.32974 3.4752 11.2535 2.98177C12.5606 2.65051 13.8769 2.11565 14.8569 2.90009C15.8369 3.68453 16.9156 4.58284 18.655 5.55246C18.655 5.55246 21.1214 1.93393 25.035 0.94131C28.9487 -0.0513136 36.9513 1.29442 39.833 10.2234C42.7147 19.1524 31.4877 26.087 24.7754 27.7893C13.3836 30.6763 11.4806 24.7792 8.41979 25.5556C6.04952 26.156 6.91144 28.6209 8.7482 30.4808C9.8243 31.57 8.91825 33.2412 6.93091 33.7416L6.7388 33.7945Z" stroke="#364989" stroke-width="1.5" stroke-linecap="round" stroke-linejoin="round"/>
</g>
<defs>
<clipPath id="clip0_105_6722">
<rect width="41.05" height="34.59" fill="white"/>
</clipPath>
</defs>
</svg>
