<svg width="38" height="43" viewBox="0 0 38 43" fill="none" xmlns="http://www.w3.org/2000/svg">
<path d="M5.97559 4.77979H10.7746V41.4582H5.97559V4.77979Z" fill="#8FA4EB"/>
<path d="M24.9908 8.72656V17.3016C23.0583 17.7802 21.3417 18.8919 20.1147 20.4597C18.8877 22.0274 18.2209 23.9608 18.2207 25.9516C18.2207 28.3154 19.1597 30.5823 20.8311 32.2537C22.5025 33.9251 24.7694 34.8641 27.1332 34.8641C29.4969 34.8641 31.7638 33.9251 33.4353 32.2537C35.1067 30.5823 36.0457 28.3154 36.0457 25.9516C36.0454 23.957 35.3762 22.0202 34.1449 20.451C32.9137 18.8818 31.1915 17.7709 29.2542 17.2963V8.72656H24.9908Z" fill="#D1D8F1"/>
<path d="M36.0457 25.3091C36.0457 30.2313 32.0555 34.2216 27.1332 34.2216C22.2109 34.2216 18.2207 30.2313 18.2207 25.3091" fill="#92AAF9"/>
<path d="M31.8556 4.24568C31.8556 4.47075 31.8113 4.69368 31.7251 4.90163C31.639 5.10957 31.5128 5.2985 31.3536 5.45765C31.1945 5.61681 31.0055 5.7431 30.7976 5.82923C30.5896 5.91536 30.3667 5.95962 30.1417 5.95962C29.9166 5.95962 29.6937 5.91536 29.4858 5.82923C29.2778 5.7431 29.0889 5.61681 28.9297 5.45765C28.7706 5.2985 28.6443 5.10957 28.5582 4.90163C28.4721 4.69368 28.4277 4.47075 28.4277 4.24568C28.4277 4.0206 28.4721 3.79767 28.5582 3.58973C28.6443 3.38178 28.7706 3.19286 28.9297 3.0337C29.0889 2.87455 29.2778 2.74843 29.4858 2.66229C29.6937 2.57616 29.9166 2.53174 30.1417 2.53174C30.3667 2.53174 30.5896 2.57616 30.7976 2.66229C31.0055 2.74843 31.1945 2.87455 31.3536 3.0337C31.5128 3.19286 31.639 3.38178 31.7251 3.58973C31.8113 3.79767 31.8556 4.0206 31.8556 4.24568Z" fill="#92AAF9"/>
<path d="M25.6857 2.21394C25.6857 2.43902 25.6414 2.66194 25.5552 2.86989C25.4691 3.07783 25.3428 3.26676 25.1837 3.42591C25.0245 3.58507 24.8356 3.71136 24.6276 3.79749C24.4197 3.88362 24.1968 3.92788 23.9717 3.92788C23.7467 3.92788 23.5238 3.88362 23.3159 3.79749C23.1079 3.71136 22.919 3.58507 22.7598 3.42591C22.6007 3.26676 22.4744 3.07783 22.3883 2.86989C22.3021 2.66194 22.2578 2.43902 22.2578 2.21394C22.2578 1.98886 22.3021 1.76593 22.3883 1.55799C22.4744 1.35004 22.6007 1.16112 22.7598 1.00196C22.919 0.842809 23.1079 0.716687 23.3159 0.630554C23.5238 0.54442 23.7467 0.5 23.9717 0.5C24.1968 0.5 24.4197 0.54442 24.6276 0.630554C24.8356 0.716687 25.0245 0.842809 25.1837 1.00196C25.3428 1.16112 25.4691 1.35004 25.5552 1.55799C25.6414 1.76593 25.6857 1.98886 25.6857 2.21394Z" fill="#B1C3FF"/>
<path d="M23.6392 8.72691H30.4756M31.8564 4.24573C31.8564 4.4708 31.8121 4.69373 31.7259 4.90168C31.6398 5.10962 31.5136 5.29855 31.3544 5.4577C31.1953 5.61686 31.0063 5.74314 30.7984 5.82928C30.5904 5.91541 30.3676 5.95966 30.1425 5.95966C29.9174 5.95966 29.6945 5.91541 29.4866 5.82928C29.2786 5.74314 29.0897 5.61686 28.9305 5.4577C28.7714 5.29855 28.6451 5.10962 28.559 4.90168C28.4729 4.69373 28.4285 4.4708 28.4285 4.24573C28.4285 4.02065 28.4729 3.79772 28.559 3.58978C28.6451 3.38183 28.7714 3.1929 28.9305 3.03375C29.0897 2.8746 29.2786 2.74847 29.4866 2.66234C29.6945 2.57621 29.9174 2.53179 30.1425 2.53179C30.3676 2.53179 30.5904 2.57621 30.7984 2.66234C31.0063 2.74847 31.1953 2.8746 31.3544 3.03375C31.5136 3.1929 31.6398 3.38183 31.7259 3.58978C31.8121 3.79772 31.8564 4.02065 31.8564 4.24573ZM25.6857 2.21394C25.6857 2.43902 25.6414 2.66194 25.5552 2.86989C25.4691 3.07783 25.3428 3.26676 25.1837 3.42591C25.0245 3.58507 24.8356 3.71136 24.6276 3.79749C24.4197 3.88362 24.1968 3.92788 23.9717 3.92788C23.7467 3.92788 23.5238 3.88362 23.3159 3.79749C23.1079 3.71136 22.919 3.58507 22.7598 3.42591C22.6007 3.26676 22.4744 3.07783 22.3883 2.86989C22.3021 2.66194 22.2578 2.43902 22.2578 2.21394C22.2578 1.98886 22.3021 1.76593 22.3883 1.55799C22.4744 1.35004 22.6007 1.16112 22.7598 1.00196C22.919 0.842809 23.1079 0.716687 23.3159 0.630554C23.5238 0.54442 23.7467 0.5 23.9717 0.5C24.1968 0.5 24.4197 0.54442 24.6276 0.630554C24.8356 0.716687 25.0245 0.842809 25.1837 1.00196C25.3428 1.16112 25.4691 1.35004 25.5552 1.55799C25.6414 1.76593 25.6857 1.98886 25.6857 2.21394Z" stroke="#586697" stroke-linecap="round" stroke-linejoin="round"/>
<path d="M17.9727 25.1807H36.1404" stroke="#586697"/>
<path d="M24.6568 9.07031L24.6404 17.2885C20.3537 18.4965 17.6167 22.6835 18.2302 27.0948C18.8438 31.5061 22.6196 34.7872 27.0733 34.7794C31.527 34.7657 35.2913 31.4773 35.8895 27.064C36.0391 25.9606 35.98 24.8721 35.7384 23.8411C35.678 23.5835 35.6068 23.3292 35.5243 23.0794M32.3466 18.6916C31.4946 18.0632 30.5179 17.5784 29.4452 17.2801L29.4589 9.07031" stroke="#586697" stroke-linecap="round" stroke-linejoin="round"/>
<path d="M34.9454 20.6392C34.9454 21.0178 34.6384 21.3248 34.2598 21.3248C33.8811 21.3248 33.5742 21.0178 33.5742 20.6392C33.5742 20.2606 33.8811 19.9536 34.2598 19.9536C34.6384 19.9536 34.9454 20.2606 34.9454 20.6392Z" fill="#364989"/>
<path d="M0.5 41.6331H37.4999M5.97489 41.6232V4.61182H10.7738L10.7739 23.1225M2.21375 14.2099H35.7878" stroke="#586697" stroke-linecap="round" stroke-linejoin="round"/>
<path d="M11.46 25.8653C11.46 26.2438 11.153 26.5508 10.7744 26.5508C10.3959 26.5508 10.0889 26.2438 10.0889 25.8653C10.0889 25.4867 10.3959 25.1797 10.7744 25.1797C11.153 25.1797 11.46 25.4867 11.46 25.8653Z" fill="#364989"/>
<path d="M10.7744 41.2911V28.6079" stroke="#586697" stroke-linecap="round" stroke-linejoin="round"/>
<path d="M34.7071 20.3487C34.7071 20.7272 34.4001 21.0342 34.0215 21.0342C33.6429 21.0342 33.3359 20.7272 33.3359 20.3487C33.3359 19.9701 33.6429 19.6631 34.0215 19.6631C34.4001 19.6631 34.7071 19.9701 34.7071 20.3487Z" fill="#364989"/>
</svg>
