<svg width="43" height="43" viewBox="0 0 43 43" fill="none" xmlns="http://www.w3.org/2000/svg">
<path d="M16.4917 12.1133L16.9981 12.8523C17.2034 12.7115 17.3409 12.4919 17.3777 12.2458C17.4145 11.9997 17.3472 11.7493 17.1921 11.5548L16.4917 12.1133ZM14.3337 9.40688L13.8508 8.6523C13.6371 8.78907 13.4914 9.01011 13.4499 9.26041C13.4084 9.51079 13.475 9.767 13.6332 9.96543L14.3337 9.40688ZM17.355 7.47374L18.0553 6.91524C17.7693 6.55654 17.2586 6.47189 16.8721 6.71915L17.355 7.47374ZM19.5129 10.1802L18.8126 10.7386C19.0709 11.0627 19.5179 11.1672 19.8931 10.9913L19.5129 10.1802ZM21.9877 9.02024L22.3679 9.83141C22.6825 9.68396 22.8835 9.36773 22.8835 9.02024H21.9877ZM21.9877 6.27087L21.9876 5.37504C21.4929 5.37504 21.0918 5.77612 21.0918 6.27087H21.9877ZM25.8433 6.27083H26.7392C26.7392 6.03324 26.6447 5.80539 26.4768 5.63738C26.3087 5.46938 26.0809 5.375 25.8433 5.375V6.27083ZM25.8433 9.02024H24.9475C24.9475 9.34766 25.1261 9.64893 25.4133 9.80615L25.8433 9.02024ZM11.6462 17.943L10.8737 18.3966C10.9984 18.6091 11.2051 18.7607 11.4452 18.816C11.6853 18.8713 11.9375 18.8252 12.1426 18.6887L11.6462 17.943ZM8.06283 15.554L7.18265 15.3873C7.13761 15.6251 7.19069 15.871 7.32983 16.069C7.46898 16.2671 7.68233 16.4004 7.92132 16.4386L8.06283 15.554ZM8.86507 11.3189L9.11794 10.4596C8.87527 10.3882 8.61369 10.4227 8.39783 10.5546C8.18198 10.6866 8.03198 10.9036 7.98489 11.1522L8.86507 11.3189ZM15.2295 16.1539L15.5618 16.9858C15.9419 16.8341 16.1707 16.444 16.1178 16.0382L15.2295 16.1539ZM20.744 17.3833L19.9408 16.9865L19.4681 17.9434L20.4924 18.243L20.744 17.3833ZM34.6423 10.567L35.5375 10.5999L35.5706 9.70268L34.6732 9.67169L34.6423 10.567ZM34.4856 14.8237L34.4547 15.719L35.3479 15.7498L35.3808 14.8567L34.4856 14.8237ZM11.9723 16.85C10.1764 18.4387 9.50342 20.6088 9.57948 22.8677C9.65482 25.1087 10.4629 27.4791 11.6753 29.624C12.8901 31.7731 14.5419 33.7514 16.3719 35.2018C18.1892 36.6421 20.2648 37.625 22.3154 37.625V35.8333C20.8208 35.8333 19.1296 35.1013 17.4848 33.7976C15.8525 32.5039 14.3467 30.7091 13.235 28.7423C12.1208 26.771 11.4332 24.6824 11.3701 22.8074C11.3076 20.9501 11.8534 19.3473 13.1595 18.192L11.9723 16.85ZM22.3154 37.625C24.3609 37.625 26.4898 36.6472 28.3749 35.1996C30.2743 33.7411 32.0137 31.7405 33.2886 29.5386C35.7939 25.2119 36.7084 19.6481 32.6586 16.066L31.4715 17.4079C34.5262 20.1099 34.1112 24.5424 31.7381 28.6408C30.574 30.6514 28.9871 32.4706 27.2836 33.7787C25.5659 35.0977 23.8153 35.8333 22.3154 35.8333V37.625ZM32.6586 16.066C32.1444 15.6111 31.7436 15.3747 31.3059 15.1535C30.8836 14.94 30.4925 14.7696 29.8611 14.3973L28.951 15.9405C29.6491 16.3523 30.1444 16.5739 30.4975 16.7524C30.8353 16.9231 31.0993 17.0787 31.4715 17.4079L32.6586 16.066ZM21.3312 16.6173C19.9966 16.1804 18.2657 15.7537 16.5986 15.6582C14.9735 15.565 13.1895 15.7733 11.9723 16.85L13.1595 18.192C13.827 17.6015 14.9948 17.3608 16.496 17.4469C17.9552 17.5306 19.5254 17.9113 20.7736 18.32L21.3312 16.6173ZM17.1921 11.5548L15.0341 8.84838L13.6332 9.96543L15.7913 12.6718L17.1921 11.5548ZM14.8165 10.1614L17.8377 8.22833L16.8721 6.71915L13.8508 8.6523L14.8165 10.1614ZM16.6545 8.03225L18.8126 10.7386L20.2134 9.62161L18.0553 6.91524L16.6545 8.03225ZM19.8931 10.9913L22.3679 9.83141L21.6075 8.2091L19.1327 9.36898L19.8931 10.9913ZM22.8835 9.02024V6.27087H21.0918V9.02024H22.8835ZM21.9877 7.1667L25.8433 7.16667V5.375L21.9876 5.37504L21.9877 7.1667ZM24.9475 6.27083V9.02024H26.7392V6.27083H24.9475ZM25.8433 9.02024C25.4133 9.80615 25.4135 9.80633 25.4133 9.80615C25.4132 9.80615 25.4134 9.80624 25.4133 9.80615C25.4132 9.80606 25.4122 9.80552 25.412 9.80543C25.4116 9.80516 25.4113 9.80499 25.4111 9.8049C25.4106 9.80454 25.4103 9.80445 25.4103 9.80445C25.4102 9.80436 25.4115 9.80507 25.4133 9.80615C25.4171 9.8083 25.4243 9.81242 25.4351 9.81887C25.457 9.83177 25.4924 9.85318 25.5392 9.88319C25.6329 9.94339 25.7708 10.0371 25.9339 10.1639C26.2627 10.4193 26.6815 10.7988 27.0525 11.2974L28.4898 10.2277C27.9976 9.56642 27.4525 9.07479 27.0331 8.749C26.8223 8.5852 26.64 8.46078 26.5071 8.37548C26.4406 8.33276 26.3861 8.29968 26.3463 8.27619C26.3265 8.26445 26.3102 8.25509 26.298 8.24812C26.2918 8.24462 26.2867 8.24173 26.2826 8.23944C26.2805 8.23828 26.2787 8.23728 26.2771 8.23643C26.2764 8.236 26.2757 8.23561 26.275 8.23526C26.2747 8.23508 26.2744 8.23492 26.2741 8.23476C26.274 8.23468 26.2742 8.2348 26.2741 8.23476C26.274 8.23465 26.2732 8.23431 25.8433 9.02024ZM15.6441 14.9235C15.8434 14.2132 16.195 13.6847 16.4973 13.3338C16.6481 13.1587 16.7843 13.0306 16.8782 12.9495C16.925 12.909 16.9609 12.8807 16.9822 12.8644C16.9929 12.8563 16.9998 12.8512 17.0026 12.8491C17.0041 12.8481 17.0044 12.8479 17.0037 12.8484C17.0033 12.8487 17.0027 12.8491 17.0017 12.8497C17.0013 12.85 17.0007 12.8505 17.0002 12.8508C16.9998 12.851 16.9996 12.8513 16.9992 12.8515C16.999 12.8516 16.9993 12.8515 16.9992 12.8515C16.9989 12.8518 16.9981 12.8523 16.4917 12.1133C15.9852 11.3743 15.985 11.3746 15.9847 11.3748C15.9846 11.3748 15.985 11.3747 15.9847 11.3748C15.9843 11.3751 15.9833 11.3757 15.9828 11.376C15.9819 11.3766 15.9809 11.3774 15.9798 11.3781C15.9778 11.3795 15.9754 11.3812 15.9727 11.3831C15.9673 11.3869 15.9607 11.3916 15.953 11.3971C15.9377 11.4083 15.9179 11.4229 15.894 11.441C15.8465 11.4774 15.7828 11.5282 15.7072 11.5934C15.5563 11.7238 15.3559 11.9136 15.1398 12.1645C14.7083 12.6655 14.2048 13.4212 13.9191 14.4395L15.6441 14.9235ZM11.6462 17.943C12.4186 17.4894 12.4185 17.4892 12.4183 17.4888C12.4183 17.4887 12.4184 17.489 12.4183 17.4888C12.418 17.4883 12.4173 17.4872 12.417 17.4867C12.4164 17.4856 12.4157 17.4844 12.4149 17.4831C12.4134 17.4805 12.4115 17.4773 12.4093 17.4738C12.405 17.4666 12.3995 17.4576 12.3927 17.4466C12.3791 17.4249 12.3607 17.3959 12.3373 17.3607C12.2905 17.2903 12.2239 17.1944 12.137 17.0806C11.9637 16.8534 11.7071 16.5506 11.3646 16.2346C10.6817 15.6043 9.63072 14.8976 8.20434 14.6694L7.92132 16.4386C8.90164 16.5954 9.64227 17.0832 10.1494 17.5513C10.402 17.7843 10.5899 18.0065 10.7124 18.1672C10.7735 18.2472 10.8175 18.3109 10.8446 18.3516C10.858 18.3719 10.8672 18.3864 10.8721 18.3942C10.8745 18.3981 10.8758 18.4003 10.8761 18.4008C10.8763 18.401 10.8766 18.4015 10.8761 18.4008C10.8759 18.4004 10.8752 18.3993 10.8749 18.3987C10.8747 18.3984 10.8745 18.3981 10.8743 18.3977C10.8742 18.3976 10.8744 18.3978 10.8743 18.3977C10.8741 18.3975 10.8737 18.3966 11.6462 17.943ZM8.94301 15.7207L9.7453 11.4857L7.98489 11.1522L7.18265 15.3873L8.94301 15.7207ZM8.86507 11.3189C8.61216 12.1783 8.61199 12.1783 8.61185 12.1782C8.61206 12.1783 8.61247 12.1784 8.61337 12.1788C8.61519 12.1793 8.61841 12.1802 8.62298 12.1816C8.63211 12.1844 8.64665 12.1888 8.66625 12.1949C8.70547 12.2071 8.76487 12.2259 8.84167 12.2512C8.99539 12.3019 9.2181 12.3784 9.48774 12.4798C10.0292 12.6834 10.7488 12.9835 11.4745 13.3715C12.2057 13.7623 12.9091 14.2245 13.4418 14.7417C13.9783 15.2628 14.2768 15.7754 14.3412 16.2696L16.1178 16.0382C15.9816 14.9923 15.3843 14.1306 14.6899 13.4564C13.9916 12.7783 13.1289 12.2243 12.3192 11.7914C11.5039 11.3556 10.7077 11.0245 10.1185 10.8029C9.82278 10.6916 9.57652 10.6069 9.40255 10.5496C9.31547 10.5208 9.24632 10.499 9.19803 10.4839C9.17384 10.4764 9.15485 10.4707 9.14141 10.4666C9.1347 10.4646 9.12932 10.463 9.12538 10.4618C9.12341 10.4612 9.12188 10.4607 9.12063 10.4604C9.12 10.4602 9.11947 10.46 9.11902 10.4598C9.11884 10.4598 9.1192 10.4598 9.11902 10.4598C9.11884 10.4597 9.11794 10.4596 8.86507 11.3189ZM14.8972 15.322C13.7396 15.7843 12.8116 16.2475 12.1695 16.5972C11.8483 16.7722 11.598 16.9191 11.4258 17.0238C11.3397 17.0761 11.273 17.1179 11.2267 17.1474C11.2036 17.1622 11.1855 17.1738 11.1727 17.1823C11.1663 17.1865 11.1611 17.1898 11.1573 17.1923C11.1553 17.1936 11.1538 17.1946 11.1526 17.1955C11.1518 17.1959 11.1513 17.1962 11.1509 17.1966C11.1507 17.1967 11.151 17.1965 11.1509 17.1966C11.1508 17.1967 11.1501 17.1971 11.15 17.1971C11.1499 17.1972 11.1497 17.1973 11.6462 17.943C12.1426 18.6887 12.1427 18.6886 12.1426 18.6887C12.1425 18.6888 12.1427 18.6887 12.1426 18.6887C12.144 18.6878 12.1469 18.6858 12.1509 18.6833C12.1588 18.6781 12.1718 18.6697 12.1898 18.6582C12.2258 18.6354 12.2816 18.6003 12.3564 18.5548C12.5062 18.4638 12.7318 18.3311 13.0265 18.1706C13.6161 17.8495 14.4798 17.418 15.5618 16.9858L14.8972 15.322ZM26.0235 18.6928C26.8422 17.3914 27.7084 16.7003 28.6709 16.2547L27.9184 14.6288C26.6275 15.2263 25.5017 16.1576 24.5069 17.7388L26.0235 18.6928ZM20.4924 18.243C21.6039 18.5682 22.9001 19.0913 23.714 19.4377L24.4156 17.7892C23.588 17.4369 22.2123 16.8795 20.9955 16.5235L20.4924 18.243ZM25.8294 10.9984C23.208 12.2118 21.4288 13.9738 19.9408 16.9865L21.5472 17.78C22.8747 15.0925 24.372 13.6473 26.5821 12.6244L25.8294 10.9984ZM34.6732 9.67169C31.3114 9.55568 28.3561 9.8289 25.8294 10.9984L26.5821 12.6244C28.7293 11.6305 31.3497 11.3498 34.6114 11.4623L34.6732 9.67169ZM35.3808 14.8567L35.5375 10.5999L33.7471 10.534L33.5904 14.7907L35.3808 14.8567ZM28.6709 16.2547C29.8333 15.7168 31.3706 15.6126 34.4547 15.719L34.5165 13.9284C31.4889 13.824 29.5254 13.885 27.9184 14.6288L28.6709 16.2547ZM24.5069 17.7388C24.4917 17.763 24.4689 17.7796 24.4469 17.787C24.4267 17.7938 24.418 17.7902 24.4156 17.7892L23.714 19.4377C24.5872 19.8094 25.5538 19.4392 26.0235 18.6928L24.5069 17.7388ZM22.2306 27.4912L22.6001 28.3453L24.2445 27.6339L23.8749 26.7798L22.2306 27.4912ZM22.5286 28.0506L22.7794 31.7264L24.5669 31.6045L24.3161 27.9286L22.5286 28.0506ZM23.5256 28.8795L27.3383 28.4369L27.1317 26.6571L23.319 27.0998L23.5256 28.8795ZM24.2705 17.9887L22.1846 22.5016L23.8109 23.2533L25.8968 18.7405L24.2705 17.9887ZM22.1348 22.6371L21.945 23.3183L23.6709 23.7991L23.8607 23.1179L22.1348 22.6371ZM22.6286 22.0612L18.7296 23.8245L19.4679 25.457L23.3669 23.6937L22.6286 22.0612ZM19.3041 23.7688L15.4191 22.8535L15.0083 24.5974L18.8933 25.5127L19.3041 23.7688ZM18.2657 24.3112L16.9408 27.6601L18.6069 28.3192L19.9317 24.9703L18.2657 24.3112ZM23.8749 26.7798C23.4678 25.8388 23.3958 24.7867 23.6709 23.7991L21.945 23.3183C21.5598 24.701 21.6606 26.1739 22.2306 27.4912L23.8749 26.7798Z" fill="#364989"/>
</svg>
