<svg width="10" height="10" viewBox="0 0 10 10" fill="none" xmlns="http://www.w3.org/2000/svg">
<path d="M4.99707 1.229H5.00098C6.22056 1.22908 7.55276 1.89569 8.02246 3.3335L8.10449 3.63135C8.53034 5.50954 7.38888 7.15346 6.22461 8.27295L6.22363 8.2749C5.88307 8.60574 5.44253 8.77095 5.00098 8.771C4.61495 8.771 4.2284 8.64462 3.90625 8.39014L3.77246 8.27295C2.60858 7.15384 1.46687 5.50575 1.89258 3.62744C2.26598 1.98447 3.69892 1.229 4.99707 1.229ZM5.00098 2.48291C3.99992 2.48291 3.18862 3.29439 3.18848 4.29541C3.18848 5.29655 3.99983 6.10791 5.00098 6.10791C6.00202 6.1078 6.81348 5.29648 6.81348 4.29541C6.81334 3.29446 6.00194 2.48302 5.00098 2.48291Z" fill="white" stroke="white"/>
</svg>
