<svg width="25" height="24" viewBox="0 0 25 24" fill="none" xmlns="http://www.w3.org/2000/svg">
<path d="M9.6499 7.48999C9.0899 7.48999 8.6499 7.93999 8.6499 8.48999C8.6499 9.03999 9.0999 9.48999 9.6499 9.48999C10.1999 9.48999 10.6499 9.03999 10.6499 8.48999C10.6499 7.93999 10.1999 7.48999 9.6499 7.48999Z" fill="#364989"/>
<path d="M21.96 5.04C21.12 3.09 19.27 2 16.69 2H8.31C5.1 2 2.5 4.6 2.5 7.81V16.19C2.5 18.77 3.59 20.62 5.54 21.46C5.73 21.54 5.95 21.49 6.09 21.35L21.85 5.59C22 5.44 22.05 5.22 21.96 5.04ZM11.03 12.24C10.64 12.62 10.13 12.8 9.62 12.8C9.11 12.8 8.6 12.61 8.21 12.24C7.19 11.28 6.07 9.75 6.5 7.93C6.88 6.28 8.34 5.54 9.62 5.54C10.9 5.54 12.36 6.28 12.74 7.94C13.16 9.75 12.04 11.28 11.03 12.24Z" fill="#364989"/>
<path d="M19.9699 20.53C20.1899 20.75 20.1599 21.11 19.8899 21.26C19.0099 21.75 17.9399 22 16.6899 22H8.3099C8.0199 22 7.8999 21.66 8.0999 21.46L14.1399 15.42C14.3399 15.22 14.6499 15.22 14.8499 15.42L19.9699 20.53Z" fill="#364989"/>
<path d="M22.4998 7.8099V16.1899C22.4998 17.4399 22.2498 18.5199 21.7598 19.3899C21.6098 19.6599 21.2498 19.6799 21.0298 19.4699L15.9098 14.3499C15.7098 14.1499 15.7098 13.8399 15.9098 13.6399L21.9498 7.5999C22.1598 7.3999 22.4998 7.5199 22.4998 7.8099Z" fill="#364989"/>
</svg>
