<svg width="24" height="24" viewBox="0 0 24 24" fill="none" xmlns="http://www.w3.org/2000/svg">
<path d="M22.0009 12.86C22.0009 15.15 20.8209 17.18 19.0009 18.46L17.6609 21.41C17.3509 22.08 16.4509 22.21 15.9809 21.64L14.5009 19.86C12.6409 19.86 10.9309 19.23 9.63086 18.18L10.2309 17.47C14.8509 17.12 18.5009 13.46 18.5009 9.00002C18.5009 8.24002 18.3909 7.49002 18.1909 6.77002C20.4609 7.97002 22.0009 10.25 22.0009 12.86Z" fill="#292D32"/>
<path d="M16.3 6.07C15.13 3.67 12.52 2 9.5 2C5.36 2 2 5.13 2 9C2 11.29 3.18 13.32 5 14.6L6.34 17.55C6.65 18.22 7.55 18.34 8.02 17.78L8.57 17.12L9.5 16C13.64 16 17 12.87 17 9C17 7.95 16.75 6.96 16.3 6.07ZM12 9.75H7C6.59 9.75 6.25 9.41 6.25 9C6.25 8.59 6.59 8.25 7 8.25H12C12.41 8.25 12.75 8.59 12.75 9C12.75 9.41 12.41 9.75 12 9.75Z" fill="#292D32"/>
</svg>
