<svg width="36" height="35" viewBox="0 0 36 35" fill="none" xmlns="http://www.w3.org/2000/svg">
<g clip-path="url(#clip0_1310_243)">
<path d="M6.73588 5.77954L6.93187 4.6073C7.20678 3.47244 7.85497 2.46283 8.77243 1.74048C9.68988 1.01814 10.8234 0.624961 11.9911 0.624023C12.9223 0.624023 13.8153 0.99392 14.4737 1.65236C15.1322 2.3108 15.5021 3.20385 15.5021 4.13503V29.8446C15.5021 32.0056 13.3298 33.9672 11.17 33.9672C7.69069 33.9672 5.15823 31.659 5.15823 28.0144C3.32231 26.6077 2.08667 24.2395 2.66655 22.0004L2.93045 20.9878L2.80132 20.887C-0.206818 18.5381 -0.0765958 14.7892 3.05952 12.6192" stroke="#364989" stroke-width="1.5" stroke-linecap="round" stroke-linejoin="round"/>
<path d="M10.8789 7.79229C9.20722 5.50448 6.61138 5.06164 3.97586 6.88623C2.64507 7.95992 1.68008 10.071 3.05956 12.6171C3.05956 12.6171 6.14474 11.0677 8.23775 14.4791" stroke="#364989" stroke-width="1.5" stroke-linecap="round" stroke-linejoin="round"/>
<path d="M5.15527 28.0143C5.15527 28.0143 5.55619 26.0481 8.48279 25.4683" stroke="#364989" stroke-width="1.5" stroke-linecap="round" stroke-linejoin="round"/>
<path d="M9.96178 27.0152C10.288 27.1285 7.41346 25.9642 8.73745 23.4702" stroke="#364989" stroke-width="1.5" stroke-linecap="round" stroke-linejoin="round"/>
<path d="M15.4998 18.4473C15.4998 18.4473 13.2992 17.3001 11.3896 19.1733" stroke="#364989" stroke-width="1.5" stroke-linecap="round" stroke-linejoin="round"/>
<path d="M2.92969 20.9879C2.92969 20.9879 3.79156 18.9877 6.84274 19.7941" stroke="#364989" stroke-width="1.5" stroke-linecap="round" stroke-linejoin="round"/>
<path d="M28.3689 5.65041L28.122 4.6073C27.8471 3.47244 27.1989 2.46283 26.2814 1.74048C25.364 1.01814 24.2305 0.624961 23.0628 0.624023C22.1316 0.624023 21.2385 0.99392 20.5801 1.65236C19.9217 2.3108 19.5518 3.20385 19.5518 4.13503V29.8446C19.5516 30.3584 19.6527 30.8672 19.8492 31.3418C20.0458 31.8165 20.3339 32.2478 20.6972 32.6111C21.0605 32.9744 21.4918 33.2625 21.9665 33.4591C22.4412 33.6556 22.9499 33.7567 23.4637 33.7566C27.8525 33.7566 29.3146 31.787 30.317 28.857C32.5731 27.584 32.9683 25.0821 32.385 22.843L32.1223 21.8316L32.2514 21.7297C32.9508 21.1834 33.5121 20.4803 33.8899 19.6773C34.2677 18.8742 34.4515 17.9935 34.4264 17.1064C34.4012 16.2192 34.1679 15.3504 33.7453 14.5699C33.3226 13.7895 32.7224 13.1193 31.9932 12.6135" stroke="#364989" stroke-width="1.5" stroke-linecap="round" stroke-linejoin="round"/>
<path d="M24.6113 8.08312C26.2921 5.13841 28.9072 5.23809 31.0784 6.8826C32.7116 8.15563 33.0038 11.1332 31.9958 12.6135C31.9958 12.6135 27.4836 11.7074 25.0984 14.0632" stroke="#364989" stroke-width="1.5" stroke-linecap="round" stroke-linejoin="round"/>
<path d="M25.3322 16.0394C25.3322 16.0394 26.0491 13.5228 23.3037 13.2725" stroke="#364989" stroke-width="1.5" stroke-linecap="round" stroke-linejoin="round"/>
<path d="M30.3196 28.8571C30.3196 28.8571 29.9186 26.8909 26.9932 26.311" stroke="#364989" stroke-width="1.5" stroke-linecap="round" stroke-linejoin="round"/>
<path d="M25.5172 27.858C25.191 27.9712 28.0655 26.8069 26.7415 24.313" stroke="#364989" stroke-width="1.5" stroke-linecap="round" stroke-linejoin="round"/>
<path d="M32.1242 21.8316C31.0213 20.9455 29.6197 20.5177 28.21 20.6368" stroke="#364989" stroke-width="1.5" stroke-linecap="round" stroke-linejoin="round"/>
<path d="M19.5537 21.8315C20.4596 21.8021 21.3535 22.0447 22.1202 22.528" stroke="#364989" stroke-width="1.5" stroke-linecap="round" stroke-linejoin="round"/>
</g>
<defs>
<clipPath id="clip0_1310_243">
<rect width="35.0534" height="34.5902" fill="white"/>
</clipPath>
</defs>
</svg>
