<svg width="33" height="33" viewBox="0 0 33 33" fill="none" xmlns="http://www.w3.org/2000/svg">
<path d="M18.315 18.7636L16.3556 18.1087L15.7008 16.1494C15.6492 15.9947 15.5306 15.8761 15.3759 15.8245L13.1742 15.0923C12.9886 15.0305 12.7823 15.0769 12.6483 15.2161L8.70375 19.1606C6.88359 18.0108 4.46531 18.2583 2.91328 19.8103C2.03156 20.692 1.54688 21.8677 1.54688 23.1103C1.54688 24.353 2.03156 25.5286 2.91328 26.4103C3.56813 27.0652 4.40344 27.5086 5.31094 27.6891C5.49141 28.5914 5.93484 29.4319 6.58969 30.0867C7.47141 30.9684 8.64703 31.4531 9.89484 31.4531C11.1427 31.4531 12.3131 30.9684 13.1948 30.0867C14.7469 28.5347 14.9944 26.1164 13.8445 24.2962L18.5212 19.6195C18.6502 19.4906 18.7017 19.3102 18.6605 19.1348C18.6192 18.9595 18.4903 18.8203 18.3202 18.7636H18.315ZM12.803 23.8734C12.6173 24.0591 12.6019 24.3478 12.7617 24.5541C13.8858 25.9978 13.7569 28.0603 12.4627 29.3545C11.7769 30.0403 10.8591 30.4219 9.88969 30.4219C8.92031 30.4219 8.0025 30.0455 7.31672 29.3545C6.72891 28.7616 6.36797 28.0139 6.27516 27.1786C6.24937 26.9362 6.05859 26.7506 5.81625 26.7197C4.98609 26.6269 4.23328 26.2659 3.64031 25.6781C2.95453 24.9923 2.57297 24.0745 2.57297 23.1052C2.57297 22.1358 2.94937 21.218 3.64031 20.5322C4.34672 19.8258 5.27484 19.47 6.21328 19.47C6.99703 19.47 7.78594 19.7227 8.44078 20.2331C8.64703 20.393 8.93578 20.3723 9.12141 20.1919L13.1433 16.17L14.7984 16.7217L15.4533 18.6811C15.5048 18.8358 15.6234 18.9544 15.7781 19.0059L17.1909 19.4752L12.7978 23.8683L12.803 23.8734ZM30.0867 6.58969C29.4319 5.93484 28.5966 5.49141 27.6942 5.31094C27.5138 4.40859 27.0703 3.56813 26.4155 2.91328C25.5338 2.03156 24.3581 1.54688 23.1103 1.54688C21.8625 1.54688 20.692 2.03156 19.8103 2.91328C18.2583 4.46531 18.0108 6.87844 19.1606 8.70375L14.4839 13.3805C14.355 13.5094 14.3034 13.6898 14.3447 13.8652C14.3859 14.0405 14.5148 14.1797 14.685 14.2364L16.6444 14.8912L17.2992 16.8506C17.3508 17.0053 17.4694 17.1239 17.6241 17.1755L19.8258 17.9077C19.8773 17.9231 19.9341 17.9334 19.9908 17.9334C20.1248 17.9334 20.2589 17.8819 20.3569 17.7839L24.3014 13.8394C26.1216 14.9892 28.5398 14.7469 30.0919 13.1897C30.9736 12.308 31.4583 11.1323 31.4583 9.88969C31.4583 8.64703 30.9736 7.47141 30.0919 6.58969H30.0867ZM29.3597 12.4678C28.0655 13.762 26.003 13.8909 24.5592 12.7669C24.353 12.607 24.0642 12.6277 23.8786 12.8081L19.8567 16.83L18.2016 16.2783L17.5467 14.3189C17.4952 14.1642 17.3766 14.0456 17.2219 13.9941L15.8091 13.5248L20.2022 9.13172C20.3878 8.94609 20.4033 8.65734 20.2434 8.45109C19.1194 7.00734 19.2483 4.94484 20.5425 3.65062C21.2283 2.96484 22.1461 2.58328 23.1155 2.58328C24.0848 2.58328 25.0027 2.95969 25.6884 3.65062C26.2711 4.23328 26.6423 5.00672 26.73 5.82656C26.7558 6.06891 26.9466 6.25453 27.1889 6.28547C28.0191 6.37828 28.7719 6.73922 29.3648 7.32703C30.0506 8.01281 30.4322 8.93063 30.4322 9.9C30.4322 10.8694 30.0558 11.7872 29.3648 12.473L29.3597 12.4678ZM22.373 21.6459C22.1719 21.4448 21.847 21.4448 21.6459 21.6459C21.4448 21.847 21.4448 22.1719 21.6459 22.373L23.1155 23.8425C23.2186 23.9456 23.3475 23.992 23.4816 23.992C23.6156 23.992 23.7445 23.9405 23.8477 23.8425C24.0487 23.6414 24.0487 23.3166 23.8477 23.1155L22.3781 21.6459H22.373ZM25.0491 19.2998L23.2134 18.9338C22.9298 18.877 22.6617 19.0575 22.605 19.3359C22.5483 19.6144 22.7288 19.8877 23.0072 19.9444L24.8428 20.3105C24.8789 20.3156 24.9098 20.3208 24.9459 20.3208C25.1883 20.3208 25.3997 20.1506 25.4513 19.9083C25.508 19.6298 25.3275 19.3566 25.0491 19.2998ZM19.3359 22.605C19.0575 22.6617 18.877 22.935 18.9338 23.2134L19.2998 25.0491C19.3463 25.2966 19.5628 25.4616 19.8052 25.4616C19.8412 25.4616 19.8722 25.4616 19.9083 25.4513C20.1867 25.3945 20.3672 25.1213 20.3105 24.8428L19.9444 23.0072C19.8877 22.7288 19.6144 22.5483 19.3359 22.605ZM10.627 11.3541C10.7302 11.4572 10.8591 11.5036 10.9931 11.5036C11.1272 11.5036 11.2561 11.452 11.3592 11.3541C11.5603 11.153 11.5603 10.8281 11.3592 10.627L9.88969 9.1575C9.68859 8.95641 9.36375 8.95641 9.16266 9.1575C8.96156 9.35859 8.96156 9.68344 9.16266 9.88453L10.6322 11.3541H10.627ZM7.95094 13.7002L9.78656 14.0663C9.82266 14.0714 9.85359 14.0766 9.88969 14.0766C10.132 14.0766 10.3434 13.9064 10.395 13.6641C10.4517 13.3856 10.2712 13.1123 9.99281 13.0556L8.15719 12.6895C7.87359 12.6328 7.60547 12.8133 7.54875 13.0917C7.49203 13.3702 7.6725 13.6434 7.95094 13.7002ZM13.5609 10.4053C13.597 10.4053 13.628 10.4053 13.6641 10.395C13.9425 10.3383 14.123 10.065 14.0663 9.78656L13.7002 7.95094C13.6434 7.6725 13.3702 7.49203 13.0917 7.54875C12.8133 7.60547 12.6328 7.87875 12.6895 8.15719L13.0556 9.99281C13.102 10.2403 13.3186 10.4053 13.5609 10.4053Z" fill="#364989"/>
</svg>
