<svg width="15" height="15" viewBox="0 0 15 15" fill="none" xmlns="http://www.w3.org/2000/svg">
<path d="M3.75 6.25V5C3.75 2.93125 4.375 1.25 7.5 1.25C10.625 1.25 11.25 2.93125 11.25 5V6.25" stroke="#9CA3AF" stroke-width="1.5" stroke-linecap="round" stroke-linejoin="round"/>
<path d="M7.5 11.5625C8.36294 11.5625 9.0625 10.8629 9.0625 10C9.0625 9.13706 8.36294 8.4375 7.5 8.4375C6.63706 8.4375 5.9375 9.13706 5.9375 10C5.9375 10.8629 6.63706 11.5625 7.5 11.5625Z" stroke="#9CA3AF" stroke-width="1.5" stroke-linecap="round" stroke-linejoin="round"/>
<path d="M10.625 13.75H4.375C1.875 13.75 1.25 13.125 1.25 10.625V9.375C1.25 6.875 1.875 6.25 4.375 6.25H10.625C13.125 6.25 13.75 6.875 13.75 9.375V10.625C13.75 13.125 13.125 13.75 10.625 13.75Z" stroke="#9CA3AF" stroke-width="1.5" stroke-linecap="round" stroke-linejoin="round"/>
</svg>
