<svg width="25" height="24" viewBox="0 0 25 24" fill="none" xmlns="http://www.w3.org/2000/svg">
<path d="M16.64 2.96001L7.61 5.96001C1.54 7.99001 1.54 11.3 7.61 13.32L10.29 14.21L11.18 16.89C13.2 22.96 16.52 22.96 18.54 16.89L21.55 7.87001C22.89 3.82001 20.69 1.61001 16.64 2.96001ZM16.96 8.34001L13.16 12.16C13.01 12.31 12.82 12.38 12.63 12.38C12.44 12.38 12.25 12.31 12.1 12.16C11.81 11.87 11.81 11.39 12.1 11.1L15.9 7.28001C16.19 6.99001 16.67 6.99001 16.96 7.28001C17.25 7.57001 17.25 8.05001 16.96 8.34001Z" fill="#364989"/>
</svg>
