<svg width="65" height="65" viewBox="0 0 65 65" fill="none" xmlns="http://www.w3.org/2000/svg">
<rect width="65" height="65" rx="32.5" fill="#364989"/>
<path d="M28.3599 23.46L37.3899 26.46C43.4599 28.49 43.4599 31.8 37.3899 33.82L34.7099 34.71L33.8199 37.39C31.7999 43.46 28.4799 43.46 26.4599 37.39L23.4499 28.37C22.1099 24.32 24.3099 22.11 28.3599 23.46ZM28.0399 28.84L31.8399 32.66C31.9899 32.81 32.1799 32.88 32.3699 32.88C32.5599 32.88 32.7499 32.81 32.8999 32.66C33.1899 32.37 33.1899 31.89 32.8999 31.6L29.0999 27.78C28.8099 27.49 28.3299 27.49 28.0399 27.78C27.7499 28.07 27.7499 28.55 28.0399 28.84Z" fill="white"/>
</svg>
