<svg width="15" height="15" viewBox="0 0 15 15" fill="none" xmlns="http://www.w3.org/2000/svg">
<path d="M12.5625 5.7624C11.4313 5.7624 10.9688 4.9624 11.5313 3.98115C11.8563 3.4124 11.6625 2.6874 11.0938 2.3624L10.0125 1.74365C9.51875 1.4499 8.88125 1.6249 8.5875 2.11865L8.51875 2.2374C7.95625 3.21865 7.03125 3.21865 6.4625 2.2374L6.39375 2.11865C6.1125 1.6249 5.475 1.4499 4.98125 1.74365L3.9 2.3624C3.33125 2.6874 3.1375 3.41865 3.4625 3.9874C4.03125 4.9624 3.56875 5.7624 2.4375 5.7624C1.7875 5.7624 1.25 6.29365 1.25 6.9499V8.0499C1.25 8.6999 1.78125 9.2374 2.4375 9.2374C3.56875 9.2374 4.03125 10.0374 3.4625 11.0186C3.1375 11.5874 3.33125 12.3124 3.9 12.6374L4.98125 13.2561C5.475 13.5499 6.1125 13.3749 6.40625 12.8812L6.475 12.7624C7.0375 11.7811 7.9625 11.7811 8.53125 12.7624L8.6 12.8812C8.89375 13.3749 9.53125 13.5499 10.025 13.2561L11.1063 12.6374C11.675 12.3124 11.8687 11.5811 11.5437 11.0186C10.975 10.0374 11.4375 9.2374 12.5688 9.2374C13.2188 9.2374 13.7563 8.70615 13.7563 8.0499V6.9499C13.75 6.2999 13.2188 5.7624 12.5625 5.7624ZM7.5 9.53115C6.38125 9.53115 5.46875 8.61865 5.46875 7.4999C5.46875 6.38115 6.38125 5.46865 7.5 5.46865C8.61875 5.46865 9.53125 6.38115 9.53125 7.4999C9.53125 8.61865 8.61875 9.53115 7.5 9.53115Z" fill="#364989"/>
</svg>
