<svg width="25" height="24" viewBox="0 0 25 24" fill="none" xmlns="http://www.w3.org/2000/svg">
<path d="M6.23986 16C6.34986 15.51 6.14986 14.81 5.79986 14.46L3.36986 12.03C2.60986 11.27 2.30986 10.46 2.52986 9.76C2.75986 9.06 3.46986 8.58 4.52986 8.4L7.64986 7.88C8.09986 7.8 8.64986 7.4 8.85986 6.99L10.5799 3.54C11.0799 2.55 11.7599 2 12.4999 2C13.2399 2 13.9199 2.55 14.4199 3.54L16.1399 6.99C16.2699 7.25 16.5399 7.5 16.8299 7.67L6.05986 18.44C5.91986 18.58 5.67986 18.45 5.71986 18.25L6.23986 16Z" fill="#364989"/>
<path d="M19.1998 14.4599C18.8398 14.8199 18.6398 15.5099 18.7598 15.9999L19.4498 19.0099C19.7398 20.2599 19.5598 21.1999 18.9398 21.6499C18.6898 21.8299 18.3898 21.9199 18.0398 21.9199C17.5298 21.9199 16.9298 21.7299 16.2698 21.3399L13.3398 19.5999C12.8798 19.3299 12.1198 19.3299 11.6598 19.5999L8.7298 21.3399C7.6198 21.9899 6.6698 22.0999 6.0598 21.6499C5.8298 21.4799 5.6598 21.2499 5.5498 20.9499L17.7098 8.7899C18.1698 8.3299 18.8198 8.1199 19.4498 8.2299L20.4598 8.3999C21.5198 8.5799 22.2298 9.0599 22.4598 9.7599C22.6798 10.4599 22.3798 11.2699 21.6198 12.0299L19.1998 14.4599Z" fill="#364989"/>
</svg>
