<svg width="42" height="42" viewBox="0 0 42 42" fill="none" xmlns="http://www.w3.org/2000/svg">
<g clip-path="url(#clip0_785_4386)">
<path d="M28.2188 8.53125C28.2188 11.4319 25.8694 13.7812 22.9688 13.7812C22.9688 10.8806 25.3181 8.53125 28.2188 8.53125Z" fill="#96AEFF"/>
<path d="M25.5938 11.1562C25.5938 12.6066 24.4191 13.7812 22.9688 13.7812C21.5184 13.7812 20.3438 12.6066 20.3438 11.1562C20.3438 9.70594 22.9688 7.21875 22.9688 7.21875C22.9688 7.21875 25.5938 9.70594 25.5938 11.1562Z" fill="#96AEFF"/>
<path d="M22.9688 13.7812C20.0681 13.7812 17.7188 11.4319 17.7188 8.53125C20.6194 8.53125 22.9688 10.8806 22.9688 13.7812Z" fill="#C3CEF4"/>
<path d="M12.4688 28.875V40.6875H9.84375L7.875 31.5L5.90625 40.6875H3.28125V28.875" fill="#94A6E3"/>
<path d="M6.5625 15.75H9.1875C11.3597 15.75 13.125 17.5153 13.125 19.6875V28.875H2.625V19.6875C2.625 17.5153 4.39031 15.75 6.5625 15.75Z" fill="#94A6E3"/>
<path d="M30.8437 34.125L26.25 30.8438L21.9187 36.6187C21.2691 37.485 21.8859 38.7188 22.9687 38.7188H23.6512C24.0516 38.7188 24.4256 38.535 24.675 38.2266L26.9062 35.4375L30.4762 37.9838C31.1456 38.4628 31.9462 38.7188 32.7666 38.7188H36.1003C38.2725 38.7188 40.0378 36.9534 40.0378 34.7812V26.25C40.0378 24.0778 38.2725 22.3125 36.1003 22.3125H34.1316C31.9594 22.3125 30.1941 24.0778 30.1941 26.25L30.8503 34.125H30.8437Z" fill="#93A5E2"/>
<path d="M13.322 21.046L11.1695 19.5103C10.5395 19.0575 9.67329 19.1297 9.12204 19.681C8.41329 20.3897 8.53141 21.571 9.36485 22.1222L13.322 24.7603L20.4883 19.1888C20.7581 18.9747 20.934 18.664 20.9787 18.3225C21.0234 17.981 20.9335 17.6355 20.728 17.3592C20.5224 17.0828 20.2174 16.8973 19.8774 16.842C19.5375 16.7866 19.1894 16.8657 18.9067 17.0625L13.322 21.0525V21.046Z" fill="#94A6E3"/>
<path d="M7.875 13.7812C10.0496 13.7812 11.8125 12.0184 11.8125 9.84375C11.8125 7.66913 10.0496 5.90625 7.875 5.90625C5.70038 5.90625 3.9375 7.66913 3.9375 9.84375C3.9375 12.0184 5.70038 13.7812 7.875 13.7812Z" fill="#94A6E3"/>
<path d="M32.8125 28.875V26.5781C32.8125 26.143 32.9853 25.7257 33.293 25.418C33.6007 25.1103 34.018 24.9375 34.4531 24.9375C34.8882 24.9375 35.3055 25.1103 35.6132 25.418C35.9209 25.7257 36.0938 26.143 36.0938 26.5781V31.5H26.25C25.5281 31.5 24.9375 30.9094 24.9375 30.1875C24.9375 29.4656 25.5281 28.875 26.25 28.875H32.8125Z" fill="#CED7F4"/>
<path d="M35.4375 20.3438C37.6121 20.3438 39.375 18.5809 39.375 16.4062C39.375 14.2316 37.6121 12.4688 35.4375 12.4688C33.2629 12.4688 31.5 14.2316 31.5 16.4062C31.5 18.5809 33.2629 20.3438 35.4375 20.3438Z" fill="#CED7F4"/>
<path d="M7.875 14.4375C10.4081 14.4375 12.4688 12.3769 12.4688 9.84375C12.4688 7.31063 10.4081 5.25 7.875 5.25C5.34188 5.25 3.28125 7.31063 3.28125 9.84375C3.28125 12.3769 5.34188 14.4375 7.875 14.4375ZM7.875 6.5625C9.68625 6.5625 11.1562 8.0325 11.1562 9.84375C11.1562 11.655 9.68625 13.125 7.875 13.125C6.06375 13.125 4.59375 11.655 4.59375 9.84375C4.59375 8.0325 6.06375 6.5625 7.875 6.5625ZM30.8438 16.4062C30.8438 18.9394 32.9044 21 35.4375 21C37.9706 21 40.0312 18.9394 40.0312 16.4062C40.0312 13.8731 37.9706 11.8125 35.4375 11.8125C32.9044 11.8125 30.8438 13.8731 30.8438 16.4062ZM35.4375 13.125C37.2487 13.125 38.7188 14.595 38.7188 16.4062C38.7188 18.2175 37.2487 19.6875 35.4375 19.6875C33.6262 19.6875 32.1562 18.2175 32.1562 16.4062C32.1562 14.595 33.6262 13.125 35.4375 13.125Z" fill="#364989"/>
<path d="M40.6875 34.7812V26.25C40.6875 23.7169 38.6269 21.6562 36.0938 21.6562H34.125C31.5919 21.6562 29.5312 23.7169 29.5312 26.25V28.2188H26.25C25.1672 28.2188 24.2812 29.1047 24.2812 30.1875C24.2812 30.7388 24.5044 31.2309 24.8719 31.5919L21.3937 36.225C20.9409 36.8288 20.8688 37.6162 21.2034 38.2856C21.3544 38.5875 21.5775 38.8369 21.84 39.0206L20.1534 40.0312H13.1184V29.5312C13.4794 29.5312 13.7747 29.2359 13.7747 28.875V25.2328L20.8819 19.7006C21.3281 19.3528 21.6103 18.8278 21.6431 18.2569C21.6759 17.6859 21.4659 17.1347 21.0656 16.7344C20.7345 16.4017 20.2957 16.1978 19.8279 16.1593C19.3601 16.1208 18.8938 16.2503 18.5128 16.5244L13.7747 19.9106V19.6875C13.7747 17.1544 11.7141 15.0938 9.18094 15.0938H6.55594C4.02281 15.0938 1.96219 17.1544 1.96219 19.6875V28.875C1.96219 29.2359 2.2575 29.5312 2.61844 29.5312V40.0312H0.65625V41.3438H20.3438C20.4619 41.3438 20.58 41.3109 20.6784 41.2519L23.8022 39.375H41.3372V38.0625H39.2962C39.7347 37.636 40.0832 37.1258 40.3211 36.5622C40.5589 35.9986 40.6813 35.393 40.6809 34.7812H40.6875ZM13.7025 21.5775L19.2872 17.5875C19.5562 17.3972 19.9172 17.4234 20.1469 17.6597C20.2847 17.7975 20.3569 17.9813 20.3438 18.1781C20.3306 18.375 20.2388 18.5456 20.0878 18.6637L13.2956 23.9466L9.73219 21.5709C9.49594 21.4134 9.35156 21.1641 9.32531 20.8884C9.29906 20.6128 9.3975 20.3372 9.59437 20.1403C9.74981 19.9832 9.95635 19.8869 10.1766 19.8688C10.3969 19.8508 10.6164 19.9122 10.7953 20.0419L12.9478 21.5775C13.1775 21.7416 13.4794 21.7416 13.7091 21.5775H13.7025ZM6.72 40.0312L7.875 34.6303L9.03 40.0312H6.71344H6.72ZM11.8125 40.0312H10.3753L8.51812 31.3622C8.4525 31.0603 8.18344 30.8438 7.875 30.8438C7.56656 30.8438 7.2975 31.0603 7.23188 31.3622L5.37469 40.0312H3.9375V29.5312H11.8125V40.0312ZM12.4688 28.2188H3.28125V19.6875C3.28125 17.8762 4.75125 16.4062 6.5625 16.4062H9.1875C10.9791 16.4062 12.4294 17.8434 12.4622 19.6284L11.55 18.9722C11.1173 18.6636 10.5895 18.518 10.0598 18.5613C9.53011 18.6045 9.03282 18.8338 8.65594 19.2084C8.17687 19.6875 7.94063 20.3438 8.01281 21.0131C8.07844 21.6825 8.43938 22.2862 9.00375 22.6603L12.4753 24.9703V28.2122L12.4688 28.2188ZM26.25 29.5312H32.8125C33.1734 29.5312 33.4688 29.2359 33.4688 28.875V26.5781C33.4688 26.0334 33.9084 25.5938 34.4531 25.5938C34.9978 25.5938 35.4375 26.0334 35.4375 26.5781V30.8438H26.25C25.8891 30.8438 25.5938 30.5484 25.5938 30.1875C25.5938 29.8266 25.8891 29.5312 26.25 29.5312ZM29.7347 32.3991L29.4328 32.1562H29.6756L29.7347 32.3991ZM25.6463 38.0625L27.0309 36.33L29.4591 38.0625H25.6463ZM36.0938 38.0625H32.76C32.0709 38.0625 31.4147 37.8525 30.8569 37.4522L27.2869 34.9059C27.1508 34.8074 26.9819 34.7654 26.8155 34.7886C26.6492 34.8119 26.4982 34.8986 26.3944 35.0306L24.1631 37.8197C24.102 37.897 24.0243 37.9596 23.9356 38.0028C23.847 38.046 23.7498 38.0686 23.6513 38.0691H22.9688C22.7128 38.0691 22.4962 37.9312 22.3781 37.7081C22.322 37.599 22.2983 37.4761 22.31 37.354C22.3216 37.2318 22.368 37.1156 22.4438 37.0191L26.0991 32.1497C26.1516 32.1497 26.1975 32.1628 26.25 32.1628H27.3328L30.4369 34.6434C30.555 34.7419 30.6994 34.7878 30.8438 34.7878C30.9431 34.7871 31.041 34.764 31.1301 34.7201C31.2192 34.6763 31.2973 34.6129 31.3585 34.5347C31.4197 34.4564 31.4625 34.3654 31.4836 34.2683C31.5047 34.1712 31.5035 34.0706 31.4803 33.9741L31.0275 32.1628H36.0938C36.4547 32.1628 36.75 31.8675 36.75 31.5066V26.5847C36.75 25.3181 35.7197 24.2878 34.4531 24.2878C33.1866 24.2878 32.1562 25.3181 32.1562 26.5847V28.2253H30.8438V26.2566C30.8438 24.4453 32.3137 22.9753 34.125 22.9753H36.0938C37.905 22.9753 39.375 24.4453 39.375 26.2566V34.7878C39.375 36.5991 37.905 38.0691 36.0938 38.0691V38.0625ZM22.9688 14.4375C24.5438 14.4375 26.0269 13.8272 27.1491 12.705C27.6974 12.1572 28.1322 11.5066 28.4284 10.7903C28.7246 10.074 28.8764 9.30633 28.875 8.53125C28.875 8.17031 28.5797 7.875 28.2188 7.875C27.1475 7.87319 26.0963 8.16606 25.1803 8.72156C24.4912 7.78312 23.6775 6.9825 23.4216 6.73969C23.3003 6.62437 23.1394 6.56006 22.972 6.56006C22.8047 6.56006 22.6438 6.62437 22.5225 6.73969C22.4766 6.78563 21.5381 7.67156 20.7638 8.72813C19.8459 8.17057 18.7927 7.87548 17.7188 7.875C17.3578 7.875 17.0625 8.17031 17.0625 8.53125C17.0625 11.7863 19.7138 14.4375 22.9688 14.4375ZM27.51 9.24C27.3591 10.1981 26.9194 11.0775 26.2237 11.7797C26.2106 11.7928 26.1975 11.7994 26.1844 11.8125C26.2303 11.6025 26.25 11.3794 26.25 11.1562C26.25 10.7428 26.1056 10.29 25.8759 9.83062C26.3779 9.53115 26.9326 9.33066 27.51 9.24ZM22.9753 8.14406C23.9072 9.11531 24.9441 10.4672 24.9441 11.1497C24.9441 12.0225 24.3666 12.7575 23.5791 13.0134C23.4047 11.6809 22.7822 10.4474 21.8138 9.51562C22.2075 8.98406 22.6537 8.47875 22.9819 8.1375L22.9753 8.14406ZM22.26 13.0659C20.2978 12.7575 18.7359 11.2022 18.4341 9.24C20.3962 9.54844 21.9581 11.1038 22.26 13.0659ZM22.3125 3.28125H23.625V4.59375H22.3125V3.28125ZM22.3125 0.65625H23.625V1.96875H22.3125V0.65625ZM21 1.96875H22.3125V3.28125H21V1.96875ZM23.625 1.96875H24.9375V3.28125H23.625V1.96875ZM30.1875 7.21875H31.5V8.53125H30.1875V7.21875ZM30.1875 4.59375H31.5V5.90625H30.1875V4.59375ZM28.875 5.90625H30.1875V7.21875H28.875V5.90625ZM31.5 5.90625H32.8125V7.21875H31.5V5.90625ZM14.4375 7.21875H15.75V8.53125H14.4375V7.21875ZM14.4375 4.59375H15.75V5.90625H14.4375V4.59375ZM13.125 5.90625H14.4375V7.21875H13.125V5.90625ZM15.75 5.90625H17.0625V7.21875H15.75V5.90625Z" fill="#364989"/>
</g>
<defs>
<clipPath id="clip0_785_4386">
<rect width="42" height="42" fill="white"/>
</clipPath>
</defs>
</svg>
