<svg width="16" height="16" viewBox="0 0 16 16" fill="none" xmlns="http://www.w3.org/2000/svg">
<path d="M7.99973 3.09961C4.81306 3.09961 2.21973 5.69294 2.21973 8.87961C2.21973 12.0663 4.81306 14.6663 7.99973 14.6663C11.1864 14.6663 13.7797 12.0729 13.7797 8.88628C13.7797 5.69961 11.1864 3.09961 7.99973 3.09961ZM8.49973 8.66628C8.49973 8.93961 8.27306 9.16628 7.99973 9.16628C7.72639 9.16628 7.49973 8.93961 7.49973 8.66628V5.33294C7.49973 5.05961 7.72639 4.83294 7.99973 4.83294C8.27306 4.83294 8.49973 5.05961 8.49973 5.33294V8.66628Z" fill="#364989"/>
<path d="M9.92708 2.29967H6.07375C5.80708 2.29967 5.59375 2.08634 5.59375 1.81967C5.59375 1.55301 5.80708 1.33301 6.07375 1.33301H9.92708C10.1937 1.33301 10.4071 1.54634 10.4071 1.81301C10.4071 2.07967 10.1937 2.29967 9.92708 2.29967Z" fill="#364989"/>
</svg>
