<svg width="33" height="33" viewBox="0 0 33 33" fill="none" xmlns="http://www.w3.org/2000/svg">
<rect width="33" height="33" rx="16.5" fill="white"/>
<path d="M23.8727 12.9696C24.3 13.5143 23.8287 14.2084 23.1364 14.2084H9.1665C8.61422 14.2084 8.1665 13.7607 8.1665 13.2084V11.8501C8.1665 9.81675 9.8165 8.16675 11.8498 8.16675H13.7832C15.1415 8.16675 15.5665 8.60841 16.1082 9.33341L17.2748 10.8834C17.5332 11.2251 17.5665 11.2667 18.0498 11.2667H20.3748C21.7937 11.2667 23.0586 11.9323 23.8727 12.9696Z" fill="#364989"/>
<path d="M24.8199 16.4546C24.818 15.9037 24.3708 15.458 23.8199 15.458L9.16649 15.4583C8.61421 15.4583 8.1665 15.906 8.1665 16.4583V20.375C8.1665 22.8333 10.1665 24.8333 12.6248 24.8333H20.3748C22.8332 24.8333 24.8332 22.8333 24.8332 20.375L24.8199 16.4546ZM18.5832 20.4583H17.1748V21.9166C17.1748 22.2583 16.8915 22.5416 16.5498 22.5416C16.1998 22.5416 15.9248 22.2583 15.9248 21.9166V20.4583H14.4165C14.0748 20.4583 13.7915 20.175 13.7915 19.8333C13.7915 19.4916 14.0748 19.2083 14.4165 19.2083H15.9248V17.75C15.9248 17.4083 16.1998 17.125 16.5498 17.125C16.8915 17.125 17.1748 17.4083 17.1748 17.75V19.2083H18.5832C18.9248 19.2083 19.2082 19.4916 19.2082 19.8333C19.2082 20.175 18.9248 20.4583 18.5832 20.4583Z" fill="#364989"/>
</svg>
