<svg width="13" height="12" viewBox="0 0 13 12" fill="none" xmlns="http://www.w3.org/2000/svg">
<path d="M11.2795 5.36978L10.5995 4.57979C10.4695 4.42979 10.3645 4.14979 10.3645 3.94979V3.09979C10.3645 2.56979 9.92945 2.13479 9.39945 2.13479H8.54945C8.35445 2.13479 8.06945 2.02979 7.91945 1.89979L7.12945 1.21979C6.78445 0.924785 6.21945 0.924785 5.86945 1.21979L5.08445 1.90479C4.93445 2.02979 4.64945 2.13479 4.45445 2.13479H3.58945C3.05945 2.13479 2.62445 2.56979 2.62445 3.09979V3.95479C2.62445 4.14979 2.51945 4.42979 2.39445 4.57979L1.71945 5.37478C1.42945 5.71978 1.42945 6.27978 1.71945 6.62478L2.39445 7.41979C2.51945 7.56979 2.62445 7.84979 2.62445 8.04479V8.89978C2.62445 9.42978 3.05945 9.86479 3.58945 9.86479H4.45445C4.64945 9.86479 4.93445 9.96979 5.08445 10.0998L5.87445 10.7798C6.21945 11.0748 6.78445 11.0748 7.13445 10.7798L7.92445 10.0998C8.07445 9.96979 8.35445 9.86479 8.55445 9.86479H9.40445C9.93445 9.86479 10.3695 9.42978 10.3695 8.89978V8.04979C10.3695 7.85479 10.4745 7.56979 10.6045 7.41979L11.2845 6.62979C11.5745 6.28479 11.5745 5.71478 11.2795 5.36978ZM8.57945 5.05478L6.16445 7.46978C6.09445 7.53978 5.99945 7.57978 5.89945 7.57978C5.79945 7.57978 5.70445 7.53978 5.63445 7.46978L4.42445 6.25979C4.27945 6.11479 4.27945 5.87478 4.42445 5.72978C4.56945 5.58478 4.80945 5.58478 4.95445 5.72978L5.89945 6.67479L8.04945 4.52479C8.19445 4.37979 8.43445 4.37979 8.57945 4.52479C8.72445 4.66979 8.72445 4.90978 8.57945 5.05478Z" fill="#364989"/>
</svg>
