<svg width="24" height="24" viewBox="0 0 24 24" fill="none" xmlns="http://www.w3.org/2000/svg">
<path d="M5.27051 9.5H11.1299L8.06836 14.748L8.06738 14.75L7.43848 15.8379L4.97363 20.0488L1.59863 15.0068C1.59783 15.0051 1.59766 15.0027 1.59766 15C1.59766 14.9964 1.59832 14.9932 1.59961 14.9912L5.2627 9.50098C5.26441 9.50059 5.26723 9.5 5.27051 9.5Z" fill="white" stroke="white"/>
<path d="M22.8391 14.73L16.1392 3.25C16.0592 3.09 15.8891 3 15.7091 3H8.86914C8.47914 3 8.23915 3.42 8.43915 3.75L11.4991 9L11.7491 9.42999L14.5591 14.25C14.7591 14.58 14.5192 15 14.1292 15H8.49915L7.86914 16.09C8.04914 15.77 8.50914 15.76 8.70914 16.07L11.8492 20.78C11.9392 20.92 12.0991 21 12.2691 21H18.7292C18.8992 21 19.0591 20.92 19.1491 20.78L22.8291 15.26C22.9291 15.1 22.9391 14.9 22.8391 14.73Z" fill="white"/>
</svg>
