<svg width="15" height="15" viewBox="0 0 15 15" fill="none" xmlns="http://www.w3.org/2000/svg">
<path d="M12.1939 3.65625L8.48145 1.5125C7.8752 1.1625 7.1252 1.1625 6.5127 1.5125L2.80645 3.65625C2.2002 4.00625 1.8252 4.65625 1.8252 5.3625V9.6375C1.8252 10.3375 2.2002 10.9875 2.80645 11.3438L6.51895 13.4875C7.1252 13.8375 7.8752 13.8375 8.4877 13.4875L12.2002 11.3438C12.8064 10.9937 13.1814 10.3438 13.1814 9.6375V5.3625C13.1752 4.65625 12.8002 4.0125 12.1939 3.65625ZM7.03145 4.84375C7.03145 4.5875 7.24395 4.375 7.5002 4.375C7.75645 4.375 7.96895 4.5875 7.96895 4.84375V8.125C7.96895 8.38125 7.75645 8.59375 7.5002 8.59375C7.24395 8.59375 7.03145 8.38125 7.03145 8.125V4.84375ZM8.0752 10.3937C8.04395 10.4687 8.0002 10.5375 7.94395 10.6C7.8252 10.7187 7.66895 10.7812 7.5002 10.7812C7.41895 10.7812 7.3377 10.7625 7.2627 10.7312C7.18145 10.7 7.11895 10.6562 7.05645 10.6C7.0002 10.5375 6.95645 10.4687 6.91895 10.3937C6.88769 10.3187 6.8752 10.2375 6.8752 10.1562C6.8752 9.99375 6.9377 9.83125 7.05645 9.7125C7.11895 9.65625 7.18145 9.6125 7.2627 9.58125C7.49395 9.48125 7.76895 9.5375 7.94395 9.7125C8.0002 9.775 8.04395 9.8375 8.0752 9.91875C8.10645 9.99375 8.1252 10.075 8.1252 10.1562C8.1252 10.2375 8.10645 10.3187 8.0752 10.3937Z" fill="#364989"/>
</svg>
